# Blender v2.79 (sub 0) OBJ File: ''
# www.blender.org
mtllib BaseCarros.mtl
o Cube.006
v -2.107517 1.499966 1.947349
v -2.107517 1.398129 1.947349
v -2.107517 1.499966 -2.052651
v -2.107517 1.398129 -2.052651
v 1.892483 1.499966 1.947349
v 1.892483 1.398129 1.947349
v 1.892483 1.499966 -2.052651
v 1.892483 1.398129 -2.052651
vn -1.0000 0.0000 0.0000
vn 0.0000 0.0000 -1.0000
vn 1.0000 0.0000 0.0000
vn 0.0000 0.0000 1.0000
vn 0.0000 1.0000 0.0000
vn 0.0000 -1.0000 0.0000
usemtl Material.004
s off
f 1//1 3//1 4//1 2//1
f 3//2 7//2 8//2 4//2
f 7//3 5//3 6//3 8//3
f 5//4 1//4 2//4 6//4
f 3//5 1//5 5//5 7//5
f 8//6 6//6 2//6 4//6
o Cube.005
v -0.532950 0.710000 1.849899
v -0.532950 0.310000 1.849899
v -0.532950 0.710000 1.950101
v -0.532950 0.310000 1.950101
v -2.132950 0.710000 1.849899
v -2.132950 0.310000 1.849899
v -2.132950 0.710000 1.950101
v -2.132950 0.310000 1.950101
vn 1.0000 0.0000 0.0000
vn 0.0000 0.0000 1.0000
vn -1.0000 0.0000 0.0000
vn 0.0000 0.0000 -1.0000
vn 0.0000 1.0000 0.0000
vn 0.0000 -1.0000 0.0000
usemtl Material.005
s off
f 9//7 11//7 12//7 10//7
f 11//8 15//8 16//8 12//8
f 15//9 13//9 14//9 16//9
f 13//10 9//10 10//10 14//10
f 11//11 9//11 13//11 15//11
f 16//12 14//12 10//12 12//12
o Cube.004
v 1.880101 0.710000 1.950000
v 1.880101 0.310000 1.950000
v 1.779899 0.710000 1.950000
v 1.779899 0.310000 1.950000
v 1.880101 0.710000 -2.050000
v 1.880101 0.310000 -2.050000
v 1.779899 0.710000 -2.050000
v 1.779899 0.310000 -2.050000
vn 0.0000 0.0000 1.0000
vn -1.0000 0.0000 0.0000
vn 0.0000 0.0000 -1.0000
vn 1.0000 0.0000 -0.0000
vn 0.0000 1.0000 -0.0000
vn 0.0000 -1.0000 0.0000
usemtl Material.003
s off
f 17//13 19//13 20//13 18//13
f 19//14 23//14 24//14 20//14
f 23//15 21//15 22//15 24//15
f 21//16 17//16 18//16 22//16
f 19//17 17//17 21//17 23//17
f 24//18 22//18 18//18 20//18
o Cube.003
v -2.031929 0.710000 1.950000
v -2.031929 0.310000 1.950000
v -2.132131 0.710000 1.950000
v -2.132131 0.310000 1.950000
v -2.031929 0.710000 -2.050000
v -2.031929 0.310000 -2.050000
v -2.132131 0.710000 -2.050000
v -2.132131 0.310000 -2.050000
vn 0.0000 0.0000 1.0000
vn -1.0000 0.0000 0.0000
vn 0.0000 0.0000 -1.0000
vn 1.0000 0.0000 -0.0000
vn 0.0000 1.0000 -0.0000
vn 0.0000 -1.0000 0.0000
usemtl Material.008
s off
f 25//19 27//19 28//19 26//19
f 27//20 31//20 32//20 28//20
f 31//21 29//21 30//21 32//21
f 29//22 25//22 26//22 30//22
f 27//23 25//23 29//23 31//23
f 32//24 30//24 26//24 28//24
o Cube.002
v 1.876357 0.710000 -2.050101
v 1.876357 0.310000 -2.050101
v 1.876357 0.710000 -1.949899
v 1.876357 0.310000 -1.949899
v -2.123643 0.710000 -2.050101
v -2.123643 0.310000 -2.050101
v -2.123643 0.710000 -1.949899
v -2.123643 0.310000 -1.949899
vn 1.0000 0.0000 0.0000
vn 0.0000 0.0000 1.0000
vn -1.0000 0.0000 0.0000
vn 0.0000 0.0000 -1.0000
vn 0.0000 1.0000 0.0000
vn 0.0000 -1.0000 0.0000
usemtl Material.009
s off
f 33//25 35//25 36//25 34//25
f 35//26 39//26 40//26 36//26
f 39//27 37//27 38//27 40//27
f 37//28 33//28 34//28 38//28
f 35//29 33//29 37//29 39//29
f 40//30 38//30 34//30 36//30
o Cube.001
v 1.876356 0.710000 1.849899
v 1.876356 0.310000 1.849899
v 1.876356 0.710000 1.950101
v 1.876356 0.310000 1.950101
v 0.276356 0.710000 1.849899
v 0.276356 0.310000 1.849899
v 0.276356 0.710000 1.950101
v 0.276356 0.310000 1.950101
vn 1.0000 0.0000 0.0000
vn 0.0000 0.0000 1.0000
vn -1.0000 0.0000 0.0000
vn 0.0000 0.0000 -1.0000
vn 0.0000 1.0000 0.0000
vn 0.0000 -1.0000 0.0000
usemtl Material.002
s off
f 41//31 43//31 44//31 42//31
f 43//32 47//32 48//32 44//32
f 47//33 45//33 46//33 48//33
f 45//34 41//34 42//34 46//34
f 43//35 41//35 45//35 47//35
f 48//36 46//36 42//36 44//36
o Cylinder.010_Cylinder.011
v 1.830000 0.416432 -2.050000
v 1.830000 1.416432 -2.050000
v 1.839755 0.416432 -2.049039
v 1.839755 1.416432 -2.049039
v 1.849134 0.416432 -2.046194
v 1.849134 1.416432 -2.046194
v 1.857779 0.416432 -2.041574
v 1.857779 1.416432 -2.041574
v 1.865355 0.416432 -2.035355
v 1.865355 1.416432 -2.035355
v 1.871574 0.416432 -2.027779
v 1.871574 1.416432 -2.027779
v 1.876194 0.416432 -2.019134
v 1.876194 1.416432 -2.019134
v 1.879039 0.416432 -2.009754
v 1.879039 1.416432 -2.009754
v 1.880000 0.416432 -2.000000
v 1.880000 1.416432 -2.000000
v 1.879039 0.416432 -1.990245
v 1.879039 1.416432 -1.990245
v 1.876194 0.416432 -1.980866
v 1.876194 1.416432 -1.980866
v 1.871574 0.416432 -1.972221
v 1.871574 1.416432 -1.972221
v 1.865355 0.416432 -1.964645
v 1.865355 1.416432 -1.964645
v 1.857779 0.416432 -1.958426
v 1.857779 1.416432 -1.958426
v 1.849134 0.416432 -1.953806
v 1.849134 1.416432 -1.953806
v 1.839755 0.416432 -1.950961
v 1.839755 1.416432 -1.950961
v 1.830000 0.416432 -1.950000
v 1.830000 1.416432 -1.950000
v 1.820246 0.416432 -1.950961
v 1.820246 1.416432 -1.950961
v 1.810866 0.416432 -1.953806
v 1.810866 1.416432 -1.953806
v 1.802222 0.416432 -1.958426
v 1.802222 1.416432 -1.958426
v 1.794645 0.416432 -1.964645
v 1.794645 1.416432 -1.964645
v 1.788427 0.416432 -1.972221
v 1.788427 1.416432 -1.972221
v 1.783806 0.416432 -1.980866
v 1.783806 1.416432 -1.980866
v 1.780961 0.416432 -1.990246
v 1.780961 1.416432 -1.990246
v 1.780000 0.416432 -2.000000
v 1.780000 1.416432 -2.000000
v 1.780961 0.416432 -2.009755
v 1.780961 1.416432 -2.009755
v 1.783806 0.416432 -2.019134
v 1.783806 1.416432 -2.019134
v 1.788427 0.416432 -2.027779
v 1.788427 1.416432 -2.027779
v 1.794645 0.416432 -2.035355
v 1.794645 1.416432 -2.035355
v 1.802222 0.416432 -2.041574
v 1.802222 1.416432 -2.041574
v 1.810866 0.416432 -2.046194
v 1.810866 1.416432 -2.046194
v 1.820246 0.416432 -2.049039
v 1.820246 1.416432 -2.049039
vn 0.0980 0.0000 -0.9952
vn 0.2903 0.0000 -0.9569
vn 0.4714 0.0000 -0.8819
vn 0.6344 0.0000 -0.7730
vn 0.7730 0.0000 -0.6344
vn 0.8819 0.0000 -0.4714
vn 0.9569 0.0000 -0.2903
vn 0.9952 0.0000 -0.0980
vn 0.9952 0.0000 0.0980
vn 0.9569 0.0000 0.2903
vn 0.8819 0.0000 0.4714
vn 0.7730 0.0000 0.6344
vn 0.6344 0.0000 0.7730
vn 0.4714 0.0000 0.8819
vn 0.2903 0.0000 0.9569
vn 0.0980 0.0000 0.9952
vn -0.0980 0.0000 0.9952
vn -0.2903 0.0000 0.9569
vn -0.4714 0.0000 0.8819
vn -0.6344 0.0000 0.7730
vn -0.7730 0.0000 0.6344
vn -0.8819 0.0000 0.4714
vn -0.9569 0.0000 0.2903
vn -0.9952 0.0000 0.0980
vn -0.9952 0.0000 -0.0980
vn -0.9569 0.0000 -0.2903
vn -0.8819 0.0000 -0.4714
vn -0.7730 0.0000 -0.6344
vn -0.6344 0.0000 -0.7730
vn -0.4714 0.0000 -0.8819
vn 0.0000 1.0000 -0.0000
vn -0.2903 0.0000 -0.9569
vn -0.0980 0.0000 -0.9952
vn 0.0000 -1.0000 0.0000
usemtl Material.011
s off
f 49//37 50//37 52//37 51//37
f 51//38 52//38 54//38 53//38
f 53//39 54//39 56//39 55//39
f 55//40 56//40 58//40 57//40
f 57//41 58//41 60//41 59//41
f 59//42 60//42 62//42 61//42
f 61//43 62//43 64//43 63//43
f 63//44 64//44 66//44 65//44
f 65//45 66//45 68//45 67//45
f 67//46 68//46 70//46 69//46
f 69//47 70//47 72//47 71//47
f 71//48 72//48 74//48 73//48
f 73//49 74//49 76//49 75//49
f 75//50 76//50 78//50 77//50
f 77//51 78//51 80//51 79//51
f 79//52 80//52 82//52 81//52
f 81//53 82//53 84//53 83//53
f 83//54 84//54 86//54 85//54
f 85//55 86//55 88//55 87//55
f 87//56 88//56 90//56 89//56
f 89//57 90//57 92//57 91//57
f 91//58 92//58 94//58 93//58
f 93//59 94//59 96//59 95//59
f 95//60 96//60 98//60 97//60
f 97//61 98//61 100//61 99//61
f 99//62 100//62 102//62 101//62
f 101//63 102//63 104//63 103//63
f 103//64 104//64 106//64 105//64
f 105//65 106//65 108//65 107//65
f 107//66 108//66 110//66 109//66
f 52//67 50//67 112//67 110//67 108//67 106//67 104//67 102//67 100//67 98//67 96//67 94//67 92//67 90//67 88//67 86//67 84//67 82//67 80//67 78//67 76//67 74//67 72//67 70//67 68//67 66//67 64//67 62//67 60//67 58//67 56//67 54//67
f 109//68 110//68 112//68 111//68
f 111//69 112//69 50//69 49//69
f 49//70 51//70 53//70 55//70 57//70 59//70 61//70 63//70 65//70 67//70 69//70 71//70 73//70 75//70 77//70 79//70 81//70 83//70 85//70 87//70 89//70 91//70 93//70 95//70 97//70 99//70 101//70 103//70 105//70 107//70 109//70 111//70
o Cylinder.009_Cylinder.010
v 1.830000 0.416432 1.800000
v 1.830000 1.416432 1.800000
v 1.839755 0.416432 1.800961
v 1.839755 1.416432 1.800961
v 1.849134 0.416432 1.803806
v 1.849134 1.416432 1.803806
v 1.857779 0.416432 1.808426
v 1.857779 1.416432 1.808426
v 1.865355 0.416432 1.814645
v 1.865355 1.416432 1.814645
v 1.871574 0.416432 1.822222
v 1.871574 1.416432 1.822222
v 1.876194 0.416432 1.830866
v 1.876194 1.416432 1.830866
v 1.879039 0.416432 1.840245
v 1.879039 1.416432 1.840245
v 1.880000 0.416432 1.850000
v 1.880000 1.416432 1.850000
v 1.879039 0.416432 1.859755
v 1.879039 1.416432 1.859755
v 1.876194 0.416432 1.869134
v 1.876194 1.416432 1.869134
v 1.871574 0.416432 1.877779
v 1.871574 1.416432 1.877779
v 1.865355 0.416432 1.885355
v 1.865355 1.416432 1.885355
v 1.857779 0.416432 1.891574
v 1.857779 1.416432 1.891574
v 1.849134 0.416432 1.896194
v 1.849134 1.416432 1.896194
v 1.839755 0.416432 1.899039
v 1.839755 1.416432 1.899039
v 1.830000 0.416432 1.900000
v 1.830000 1.416432 1.900000
v 1.820246 0.416432 1.899039
v 1.820246 1.416432 1.899039
v 1.810866 0.416432 1.896194
v 1.810866 1.416432 1.896194
v 1.802222 0.416432 1.891573
v 1.802222 1.416432 1.891573
v 1.794645 0.416432 1.885355
v 1.794645 1.416432 1.885355
v 1.788427 0.416432 1.877779
v 1.788427 1.416432 1.877779
v 1.783806 0.416432 1.869134
v 1.783806 1.416432 1.869134
v 1.780961 0.416432 1.859754
v 1.780961 1.416432 1.859754
v 1.780000 0.416432 1.850000
v 1.780000 1.416432 1.850000
v 1.780961 0.416432 1.840245
v 1.780961 1.416432 1.840245
v 1.783806 0.416432 1.830866
v 1.783806 1.416432 1.830866
v 1.788427 0.416432 1.822222
v 1.788427 1.416432 1.822222
v 1.794645 0.416432 1.814645
v 1.794645 1.416432 1.814645
v 1.802222 0.416432 1.808426
v 1.802222 1.416432 1.808426
v 1.810866 0.416432 1.803806
v 1.810866 1.416432 1.803806
v 1.820246 0.416432 1.800961
v 1.820246 1.416432 1.800961
vn 0.0980 0.0000 -0.9952
vn 0.2903 0.0000 -0.9569
vn 0.4714 0.0000 -0.8819
vn 0.6344 0.0000 -0.7730
vn 0.7730 0.0000 -0.6344
vn 0.8819 0.0000 -0.4714
vn 0.9569 0.0000 -0.2903
vn 0.9952 0.0000 -0.0980
vn 0.9952 0.0000 0.0980
vn 0.9569 0.0000 0.2903
vn 0.8819 0.0000 0.4714
vn 0.7730 0.0000 0.6344
vn 0.6344 0.0000 0.7730
vn 0.4714 0.0000 0.8819
vn 0.2903 0.0000 0.9569
vn 0.0980 0.0000 0.9952
vn -0.0980 0.0000 0.9952
vn -0.2903 0.0000 0.9569
vn -0.4714 0.0000 0.8819
vn -0.6344 0.0000 0.7730
vn -0.7730 0.0000 0.6344
vn -0.8819 0.0000 0.4714
vn -0.9569 0.0000 0.2903
vn -0.9952 0.0000 0.0980
vn -0.9952 0.0000 -0.0980
vn -0.9569 0.0000 -0.2903
vn -0.8819 0.0000 -0.4714
vn -0.7730 0.0000 -0.6344
vn -0.6344 0.0000 -0.7730
vn -0.4714 0.0000 -0.8819
vn 0.0000 1.0000 -0.0000
vn -0.2903 0.0000 -0.9569
vn -0.0980 0.0000 -0.9952
vn 0.0000 -1.0000 0.0000
usemtl Material.006
s off
f 113//71 114//71 116//71 115//71
f 115//72 116//72 118//72 117//72
f 117//73 118//73 120//73 119//73
f 119//74 120//74 122//74 121//74
f 121//75 122//75 124//75 123//75
f 123//76 124//76 126//76 125//76
f 125//77 126//77 128//77 127//77
f 127//78 128//78 130//78 129//78
f 129//79 130//79 132//79 131//79
f 131//80 132//80 134//80 133//80
f 133//81 134//81 136//81 135//81
f 135//82 136//82 138//82 137//82
f 137//83 138//83 140//83 139//83
f 139//84 140//84 142//84 141//84
f 141//85 142//85 144//85 143//85
f 143//86 144//86 146//86 145//86
f 145//87 146//87 148//87 147//87
f 147//88 148//88 150//88 149//88
f 149//89 150//89 152//89 151//89
f 151//90 152//90 154//90 153//90
f 153//91 154//91 156//91 155//91
f 155//92 156//92 158//92 157//92
f 157//93 158//93 160//93 159//93
f 159//94 160//94 162//94 161//94
f 161//95 162//95 164//95 163//95
f 163//96 164//96 166//96 165//96
f 165//97 166//97 168//97 167//97
f 167//98 168//98 170//98 169//98
f 169//99 170//99 172//99 171//99
f 171//100 172//100 174//100 173//100
f 116//101 114//101 176//101 174//101 172//101 170//101 168//101 166//101 164//101 162//101 160//101 158//101 156//101 154//101 152//101 150//101 148//101 146//101 144//101 142//101 140//101 138//101 136//101 134//101 132//101 130//101 128//101 126//101 124//101 122//101 120//101 118//101
f 173//102 174//102 176//102 175//102
f 175//103 176//103 114//103 113//103
f 113//104 115//104 117//104 119//104 121//104 123//104 125//104 127//104 129//104 131//104 133//104 135//104 137//104 139//104 141//104 143//104 145//104 147//104 149//104 151//104 153//104 155//104 157//104 159//104 161//104 163//104 165//104 167//104 169//104 171//104 173//104 175//104
o Cylinder.008_Cylinder.009
v -2.052030 0.416432 1.800000
v -2.052030 1.416432 1.800000
v -2.042276 0.416432 1.800961
v -2.042276 1.416432 1.800961
v -2.032896 0.416432 1.803806
v -2.032896 1.416432 1.803806
v -2.024251 0.416432 1.808426
v -2.024251 1.416432 1.808426
v -2.016675 0.416432 1.814645
v -2.016675 1.416432 1.814645
v -2.010457 0.416432 1.822222
v -2.010457 1.416432 1.822222
v -2.005836 0.416432 1.830866
v -2.005836 1.416432 1.830866
v -2.002991 0.416432 1.840245
v -2.002991 1.416432 1.840245
v -2.002030 0.416432 1.850000
v -2.002030 1.416432 1.850000
v -2.002991 0.416432 1.859755
v -2.002991 1.416432 1.859755
v -2.005836 0.416432 1.869134
v -2.005836 1.416432 1.869134
v -2.010457 0.416432 1.877779
v -2.010457 1.416432 1.877779
v -2.016675 0.416432 1.885355
v -2.016675 1.416432 1.885355
v -2.024251 0.416432 1.891574
v -2.024251 1.416432 1.891574
v -2.032896 0.416432 1.896194
v -2.032896 1.416432 1.896194
v -2.042276 0.416432 1.899039
v -2.042276 1.416432 1.899039
v -2.052030 0.416432 1.900000
v -2.052030 1.416432 1.900000
v -2.061785 0.416432 1.899039
v -2.061785 1.416432 1.899039
v -2.071164 0.416432 1.896194
v -2.071164 1.416432 1.896194
v -2.079809 0.416432 1.891573
v -2.079809 1.416432 1.891573
v -2.087385 0.416432 1.885355
v -2.087385 1.416432 1.885355
v -2.093604 0.416432 1.877779
v -2.093604 1.416432 1.877779
v -2.098224 0.416432 1.869134
v -2.098224 1.416432 1.869134
v -2.101069 0.416432 1.859754
v -2.101069 1.416432 1.859754
v -2.102030 0.416432 1.850000
v -2.102030 1.416432 1.850000
v -2.101069 0.416432 1.840245
v -2.101069 1.416432 1.840245
v -2.098224 0.416432 1.830866
v -2.098224 1.416432 1.830866
v -2.093604 0.416432 1.822222
v -2.093604 1.416432 1.822222
v -2.087385 0.416432 1.814645
v -2.087385 1.416432 1.814645
v -2.079808 0.416432 1.808426
v -2.079808 1.416432 1.808426
v -2.071164 0.416432 1.803806
v -2.071164 1.416432 1.803806
v -2.061785 0.416432 1.800961
v -2.061785 1.416432 1.800961
vn 0.0980 0.0000 -0.9952
vn 0.2903 0.0000 -0.9569
vn 0.4714 0.0000 -0.8819
vn 0.6344 0.0000 -0.7730
vn 0.7730 0.0000 -0.6344
vn 0.8819 0.0000 -0.4714
vn 0.9569 0.0000 -0.2903
vn 0.9952 0.0000 -0.0980
vn 0.9952 0.0000 0.0980
vn 0.9569 0.0000 0.2903
vn 0.8819 0.0000 0.4714
vn 0.7730 0.0000 0.6344
vn 0.6344 0.0000 0.7730
vn 0.4714 0.0000 0.8819
vn 0.2903 0.0000 0.9569
vn 0.0980 0.0000 0.9952
vn -0.0980 0.0000 0.9952
vn -0.2903 0.0000 0.9569
vn -0.4714 0.0000 0.8819
vn -0.6344 0.0000 0.7730
vn -0.7730 0.0000 0.6344
vn -0.8819 0.0000 0.4714
vn -0.9569 0.0000 0.2903
vn -0.9952 0.0000 0.0980
vn -0.9952 0.0000 -0.0980
vn -0.9569 0.0000 -0.2903
vn -0.8819 0.0000 -0.4714
vn -0.7730 0.0000 -0.6344
vn -0.6344 0.0000 -0.7730
vn -0.4714 0.0000 -0.8819
vn 0.0000 1.0000 0.0000
vn -0.2903 0.0000 -0.9569
vn -0.0980 0.0000 -0.9952
vn 0.0000 -1.0000 -0.0000
usemtl Material.007
s off
f 177//105 178//105 180//105 179//105
f 179//106 180//106 182//106 181//106
f 181//107 182//107 184//107 183//107
f 183//108 184//108 186//108 185//108
f 185//109 186//109 188//109 187//109
f 187//110 188//110 190//110 189//110
f 189//111 190//111 192//111 191//111
f 191//112 192//112 194//112 193//112
f 193//113 194//113 196//113 195//113
f 195//114 196//114 198//114 197//114
f 197//115 198//115 200//115 199//115
f 199//116 200//116 202//116 201//116
f 201//117 202//117 204//117 203//117
f 203//118 204//118 206//118 205//118
f 205//119 206//119 208//119 207//119
f 207//120 208//120 210//120 209//120
f 209//121 210//121 212//121 211//121
f 211//122 212//122 214//122 213//122
f 213//123 214//123 216//123 215//123
f 215//124 216//124 218//124 217//124
f 217//125 218//125 220//125 219//125
f 219//126 220//126 222//126 221//126
f 221//127 222//127 224//127 223//127
f 223//128 224//128 226//128 225//128
f 225//129 226//129 228//129 227//129
f 227//130 228//130 230//130 229//130
f 229//131 230//131 232//131 231//131
f 231//132 232//132 234//132 233//132
f 233//133 234//133 236//133 235//133
f 235//134 236//134 238//134 237//134
f 180//135 178//135 240//135 238//135 236//135 234//135 232//135 230//135 228//135 226//135 224//135 222//135 220//135 218//135 216//135 214//135 212//135 210//135 208//135 206//135 204//135 202//135 200//135 198//135 196//135 194//135 192//135 190//135 188//135 186//135 184//135 182//135
f 237//136 238//136 240//136 239//136
f 239//137 240//137 178//137 177//137
f 177//138 179//138 181//138 183//138 185//138 187//138 189//138 191//138 193//138 195//138 197//138 199//138 201//138 203//138 205//138 207//138 209//138 211//138 213//138 215//138 217//138 219//138 221//138 223//138 225//138 227//138 229//138 231//138 233//138 235//138 237//138 239//138
o Cylinder_Cylinder.001
v -2.052035 0.416432 -2.050000
v -2.052035 1.416432 -2.050000
v -2.042280 0.416432 -2.049039
v -2.042280 1.416432 -2.049039
v -2.032900 0.416432 -2.046194
v -2.032900 1.416432 -2.046194
v -2.024256 0.416432 -2.041574
v -2.024256 1.416432 -2.041574
v -2.016679 0.416432 -2.035355
v -2.016679 1.416432 -2.035355
v -2.010461 0.416432 -2.027779
v -2.010461 1.416432 -2.027779
v -2.005841 0.416432 -2.019134
v -2.005841 1.416432 -2.019134
v -2.002995 0.416432 -2.009754
v -2.002995 1.416432 -2.009754
v -2.002035 0.416432 -2.000000
v -2.002035 1.416432 -2.000000
v -2.002995 0.416432 -1.990245
v -2.002995 1.416432 -1.990245
v -2.005841 0.416432 -1.980866
v -2.005841 1.416432 -1.980866
v -2.010461 0.416432 -1.972221
v -2.010461 1.416432 -1.972221
v -2.016679 0.416432 -1.964645
v -2.016679 1.416432 -1.964645
v -2.024256 0.416432 -1.958426
v -2.024256 1.416432 -1.958426
v -2.032900 0.416432 -1.953806
v -2.032900 1.416432 -1.953806
v -2.042280 0.416432 -1.950961
v -2.042280 1.416432 -1.950961
v -2.052035 0.416432 -1.950000
v -2.052035 1.416432 -1.950000
v -2.061789 0.416432 -1.950961
v -2.061789 1.416432 -1.950961
v -2.071169 0.416432 -1.953806
v -2.071169 1.416432 -1.953806
v -2.079813 0.416432 -1.958426
v -2.079813 1.416432 -1.958426
v -2.087390 0.416432 -1.964645
v -2.087390 1.416432 -1.964645
v -2.093608 0.416432 -1.972221
v -2.093608 1.416432 -1.972221
v -2.098229 0.416432 -1.980866
v -2.098229 1.416432 -1.980866
v -2.101074 0.416432 -1.990246
v -2.101074 1.416432 -1.990246
v -2.102035 0.416432 -2.000000
v -2.102035 1.416432 -2.000000
v -2.101074 0.416432 -2.009755
v -2.101074 1.416432 -2.009755
v -2.098228 0.416432 -2.019134
v -2.098228 1.416432 -2.019134
v -2.093608 0.416432 -2.027779
v -2.093608 1.416432 -2.027779
v -2.087390 0.416432 -2.035355
v -2.087390 1.416432 -2.035355
v -2.079813 0.416432 -2.041574
v -2.079813 1.416432 -2.041574
v -2.071169 0.416432 -2.046194
v -2.071169 1.416432 -2.046194
v -2.061789 0.416432 -2.049039
v -2.061789 1.416432 -2.049039
vn 0.0980 0.0000 -0.9952
vn 0.2903 0.0000 -0.9569
vn 0.4714 0.0000 -0.8819
vn 0.6344 0.0000 -0.7730
vn 0.7730 0.0000 -0.6344
vn 0.8819 0.0000 -0.4714
vn 0.9569 0.0000 -0.2903
vn 0.9952 0.0000 -0.0980
vn 0.9952 0.0000 0.0980
vn 0.9569 0.0000 0.2903
vn 0.8819 0.0000 0.4714
vn 0.7730 0.0000 0.6344
vn 0.6344 0.0000 0.7730
vn 0.4714 0.0000 0.8819
vn 0.2903 0.0000 0.9569
vn 0.0980 0.0000 0.9952
vn -0.0980 0.0000 0.9952
vn -0.2903 0.0000 0.9569
vn -0.4714 0.0000 0.8819
vn -0.6344 0.0000 0.7730
vn -0.7730 0.0000 0.6344
vn -0.8819 0.0000 0.4714
vn -0.9569 0.0000 0.2903
vn -0.9952 0.0000 0.0980
vn -0.9952 0.0000 -0.0980
vn -0.9569 0.0000 -0.2903
vn -0.8819 0.0000 -0.4714
vn -0.7730 0.0000 -0.6344
vn -0.6344 0.0000 -0.7730
vn -0.4714 0.0000 -0.8819
vn 0.0000 1.0000 0.0000
vn -0.2903 0.0000 -0.9569
vn -0.0980 0.0000 -0.9952
vn 0.0000 -1.0000 0.0000
usemtl Material.010
s off
f 241//139 242//139 244//139 243//139
f 243//140 244//140 246//140 245//140
f 245//141 246//141 248//141 247//141
f 247//142 248//142 250//142 249//142
f 249//143 250//143 252//143 251//143
f 251//144 252//144 254//144 253//144
f 253//145 254//145 256//145 255//145
f 255//146 256//146 258//146 257//146
f 257//147 258//147 260//147 259//147
f 259//148 260//148 262//148 261//148
f 261//149 262//149 264//149 263//149
f 263//150 264//150 266//150 265//150
f 265//151 266//151 268//151 267//151
f 267//152 268//152 270//152 269//152
f 269//153 270//153 272//153 271//153
f 271//154 272//154 274//154 273//154
f 273//155 274//155 276//155 275//155
f 275//156 276//156 278//156 277//156
f 277//157 278//157 280//157 279//157
f 279//158 280//158 282//158 281//158
f 281//159 282//159 284//159 283//159
f 283//160 284//160 286//160 285//160
f 285//161 286//161 288//161 287//161
f 287//162 288//162 290//162 289//162
f 289//163 290//163 292//163 291//163
f 291//164 292//164 294//164 293//164
f 293//165 294//165 296//165 295//165
f 295//166 296//166 298//166 297//166
f 297//167 298//167 300//167 299//167
f 299//168 300//168 302//168 301//168
f 244//169 242//169 304//169 302//169 300//169 298//169 296//169 294//169 292//169 290//169 288//169 286//169 284//169 282//169 280//169 278//169 276//169 274//169 272//169 270//169 268//169 266//169 264//169 262//169 260//169 258//169 256//169 254//169 252//169 250//169 248//169 246//169
f 301//170 302//170 304//170 303//170
f 303//171 304//171 242//171 241//171
f 241//172 243//172 245//172 247//172 249//172 251//172 253//172 255//172 257//172 259//172 261//172 263//172 265//172 267//172 269//172 271//172 273//172 275//172 277//172 279//172 281//172 283//172 285//172 287//172 289//172 291//172 293//172 295//172 297//172 299//172 301//172 303//172
o Cube
v 1.922483 0.223035 -2.082650
v 1.922483 0.223035 1.977349
v -2.137517 0.223035 1.977349
v -2.137516 0.223035 -2.082651
v 1.922484 0.423035 -2.082649
v 1.922482 0.423035 1.977351
v -2.137517 0.423035 1.977349
v -2.137516 0.423035 -2.082650
vn 0.0000 -1.0000 -0.0000
vn 0.0000 1.0000 0.0000
vn 1.0000 0.0000 0.0000
vn -0.0000 -0.0000 1.0000
vn -1.0000 -0.0000 -0.0000
vn 0.0000 0.0000 -1.0000
usemtl Material.001
s off
f 305//173 306//173 307//173 308//173
f 309//174 312//174 311//174 310//174
f 305//175 309//175 310//175 306//175
f 306//176 310//176 311//176 307//176
f 307//177 311//177 312//177 308//177
f 309//178 305//178 308//178 312//178
