# 3ds Max Wavefront OBJ Exporter v0.97b - (c)2007 guruware
# File Created: 15.04.2019 15:53:08

mtllib P2_CharizardWP.mtl

#
# object leg1
#

v  456.9563 853.3835 -258.1768
v  538.4079 763.7693 -255.6685
v  392.9374 564.1067 -165.9669
v  514.8051 958.4697 -140.0043
v  623.2917 203.9705 267.9969
v  444.7855 127.7098 309.9602
v  623.8666 145.7630 420.8464
v  431.0697 200.8591 135.5252
v  436.3236 293.1201 269.5835
v  411.3590 306.9248 -50.3740
v  376.5276 388.5717 -43.4142
v  626.2729 417.8252 -113.2350
v  376.8917 471.0645 -142.3665
v  608.1166 542.8898 -208.4642
v  577.3433 650.3552 -261.4902
v  756.2319 735.8099 -121.5469
v  649.2768 855.5815 -146.1902
v  685.1031 916.5996 40.3551
v  525.9945 982.5783 53.0736
v  487.0158 945.5740 251.8508
v  385.0953 127.2508 272.8890
v  385.7354 0.0000 272.8571
v  419.0268 88.3976 -124.4343
v  454.4334 197.0992 -89.6087
v  608.7665 195.6925 -208.6575
v  631.0244 354.5319 -130.9760
v  821.9063 352.5618 59.6606
v  840.6650 485.6752 0.9976
v  871.3051 497.0079 154.7299
v  847.3024 649.2733 156.1528
v  748.8094 660.4484 342.7665
v  786.7016 786.7099 96.1252
v  697.9083 785.7985 293.7291
v  638.3244 895.5693 234.0008
v  541.4945 764.1744 391.3224
v  517.2740 848.8095 325.2886
v  821.6831 620.0217 -77.7618
v  419.3405 0.0000 -89.6343
v  609.3279 84.6945 -255.5339
v  741.8248 197.4291 -106.9059
v  776.1622 342.3720 281.3713
v  777.7248 517.9370 369.0795
v  607.9083 498.6834 469.2642
v  573.2382 639.8788 442.1768
v  609.2709 0.0000 -220.7476
v  793.5807 85.1933 -147.4957
v  789.5752 202.2256 107.1602
v  630.4189 324.5973 406.1394
v  422.1960 756.6039 318.5311
v  392.1031 584.9819 320.5122
v  792.3890 0.0000 -110.0457
v  849.8063 124.4197 248.2535
v  793.3189 125.5866 291.4839
v  848.1063 0.0000 248.1827
v  735.9330 0.0000 334.6492
v  406.4984 413.3603 343.3520
v  359.5654 0.0000 483.4342
v  504.7480 0.0000 346.9866
v  398.1421 76.6181 406.1126
v  878.3555 0.0000 464.6985
v  839.9874 86.8894 386.6764
v  623.9886 85.0673 546.2701
v  699.5701 0.0000 356.4252
v  624.1110 0.0000 623.0925
v  544.4492 0.0000 362.6465
v  374.7016 616.1386 268.9221
v  321.8531 464.6342 156.3650
# 67 vertices

vn -0.2415 -0.2458 -0.9388
vn 0.5450 0.4761 -0.6902
vn -0.3006 0.8909 0.3404
vn -0.2828 0.8764 0.3898
vn -0.3589 -0.7623 0.5387
vn -0.9957 -0.0529 0.0754
vn -0.9167 -0.3957 0.0545
vn -0.2657 -0.0312 -0.9635
vn -0.0888 -0.7649 -0.6380
vn -0.0374 -0.6088 -0.7924
vn -0.2091 -0.2064 -0.9559
vn -0.2153 -0.4810 -0.8499
vn -0.4211 -0.0983 -0.9017
vn 0.5317 0.2244 -0.8167
vn 0.5272 0.3078 -0.7920
vn 0.7362 0.5887 -0.3339
vn 0.3347 0.8747 -0.3504
vn 0.3881 0.8894 0.2417
vn -0.5276 -0.0029 0.8495
vn -0.9964 -0.0050 -0.0846
vn -0.9335 0.3403 -0.1130
vn -0.5541 0.4122 -0.7232
vn -0.5496 0.4279 -0.7175
vn 0.6874 0.2391 -0.6858
vn 0.6514 -0.3810 -0.6562
vn 0.9611 -0.2129 -0.1759
vn 0.9667 0.1543 -0.2041
vn 0.8797 0.1344 0.4562
vn 0.7745 0.5068 0.3784
vn 0.8047 0.4691 0.3638
vn 0.7396 0.5837 0.3350
vn 0.3669 0.5904 0.7189
vn 0.2904 0.6389 0.7124
vn -0.2497 0.8858 0.3911
vn -0.9179 0.3836 -0.1017
vn -0.9377 -0.3350 -0.0917
vn -0.3729 0.1790 -0.9105
vn -0.3781 0.2234 -0.8984
vn 0.3825 0.2759 -0.8818
vn 0.5255 -0.3738 -0.7643
vn 0.9905 0.0711 -0.1174
vn 0.8840 0.4421 -0.1521
vn 0.9255 0.3189 -0.2041
vn 0.8120 0.5328 -0.2383
vn 0.7105 0.6603 0.2433
vn 0.3277 0.9275 0.1799
vn 0.2940 0.6345 0.7149
vn -0.9949 -0.0398 -0.0922
vn -0.5436 -0.3091 -0.7803
vn -0.5318 0.3272 -0.7811
vn 0.5726 0.3214 -0.7542
vn 0.5294 0.4788 -0.7004
vn 0.8099 -0.5694 0.1409
vn 0.9747 -0.1067 0.1962
vn 0.5002 -0.3905 0.7728
vn 0.4651 0.2756 0.8413
vn -0.5383 -0.3199 -0.7797
vn 0.4774 -0.3341 -0.8127
vn 0.4432 0.4785 -0.7580
vn 0.8595 0.4695 -0.2022
vn 0.9125 0.3501 -0.2114
vn 0.5475 -0.6309 0.5497
vn 0.6522 -0.1825 0.7358
vn -0.4745 0.4332 0.7663
vn -0.4865 0.4466 0.7509
vn -0.5229 0.1014 0.8464
vn -0.5849 0.1747 0.7920
vn -0.5618 0.0207 0.8270
vn 0.4831 -0.3580 -0.7991
vn 0.9884 -0.0724 -0.1333
vn 0.9031 0.3954 -0.1675
vn 0.2951 0.8844 0.3617
vn 0.3509 0.8671 0.3534
vn 0.0000 -1.0000 -0.0000
vn -0.3297 -0.7026 0.6306
vn -0.4201 -0.5480 0.7234
vn -0.3810 -0.3583 0.8523
vn -0.5486 0.0649 0.8336
vn -0.9291 0.3513 -0.1155
vn 0.6379 0.3638 0.6788
vn 0.6631 0.4783 0.5758
vn 0.9451 0.2988 -0.1320
vn 0.8584 0.4557 -0.2356
vn -0.6826 0.4963 0.5364
vn 0.9032 0.3867 0.1863
vn 0.9341 0.2400 0.2643
vn -0.9249 0.2541 0.2829
vn 0.5128 0.0600 0.8564
vn 0.6034 -0.0386 0.7965
vn 0.3569 0.8734 0.3313
vn 0.6037 0.0402 -0.7962
vn 0.5669 -0.2282 -0.7916
vn 0.5790 -0.4391 -0.6870
vn 0.4330 0.4339 0.7901
vn 0.3929 0.4690 0.7910
vn 0.4547 0.2501 0.8548
vn -0.9010 0.1626 0.4021
vn -0.9334 0.0633 0.3531
vn -0.3652 0.0970 0.9259
vn -0.5216 -0.0558 0.8514
vn 0.3534 0.5091 -0.7848
vn 0.5984 0.7901 -0.1333
vn -0.9764 0.1234 -0.1772
vn -0.9600 -0.2134 -0.1815
vn -0.9131 -0.0224 0.4072
vn -0.6664 -0.7390 0.0990
vn 0.6076 -0.0088 0.7942
vn 0.9880 -0.0134 -0.1537
vn 0.7659 -0.5151 0.3847
vn 0.8962 0.2496 0.3669
vn -0.9517 -0.2928 0.0925
vn -0.8717 0.4556 -0.1808
vn -0.6334 0.3432 0.6936
vn 0.5212 -0.6560 0.5459
vn -0.8918 0.4069 0.1978
# 115 vertex normals

vt 0.0954 0.3569 0.0000
vt 0.1407 0.3146 0.0000
vt 0.1004 0.2395 0.0000
vt 0.1700 0.4061 0.0000
vt 0.0066 0.0976 0.0000
vt 0.0641 0.0679 0.0000
vt 0.0071 0.0749 0.0000
vt 0.0733 0.0963 0.0000
vt 0.0569 0.1322 0.0000
vt 0.1011 0.1376 0.0000
vt 0.0960 0.1693 0.0000
vt 0.1659 0.1807 0.0000
vt 0.1124 0.2014 0.0000
vt 0.1590 0.2294 0.0000
vt 0.1499 0.2711 0.0000
vt 0.1981 0.3044 0.0000
vt 0.1822 0.3598 0.0000
vt 0.2334 0.3747 0.0000
vt 0.2263 0.4310 0.0000
vt 0.2968 0.4095 0.0000
vt 0.0926 0.0677 0.0000
vt 0.0764 0.0182 0.0000
vt 0.1180 0.0526 0.0000
vt 0.1213 0.0949 0.0000
vt 0.1587 0.0944 0.0000
vt 0.1664 0.1561 0.0000
vt 0.2406 0.1553 0.0000
vt 0.2280 0.2071 0.0000
vt 0.2578 0.2115 0.0000
vt 0.2596 0.2707 0.0000
vt 0.2964 0.2751 0.0000
vt 0.2500 0.3242 0.0000
vt 0.2925 0.3238 0.0000
vt 0.2898 0.3665 0.0000
vt 0.3221 0.3154 0.0000
vt 0.3162 0.3602 0.0000
vt 0.2114 0.2594 0.0000
vt 0.1129 0.0182 0.0000
vt 0.1587 0.0512 0.0000
vt 0.1965 0.0950 0.0000
vt 0.2868 0.1514 0.0000
vt 0.2945 0.2197 0.0000
vt 0.3206 0.2122 0.0000
vt 0.3251 0.2671 0.0000
vt 0.1589 0.0182 0.0000
vt 0.1952 0.0514 0.0000
vt 0.2539 0.0969 0.0000
vt 0.3169 0.1445 0.0000
vt 0.0586 0.3125 0.0000
vt 0.0222 0.3476 0.0000
vt 0.0301 0.3787 0.0000
vt 0.0179 0.3154 0.0000
vt 0.0575 0.2457 0.0000
vt 0.0130 0.2671 0.0000
vt 0.0099 0.2122 0.0000
vt 0.1999 0.0182 0.0000
vt 0.2433 0.0666 0.0000
vt 0.2676 0.0671 0.0000
vt 0.3155 0.0976 0.0000
vt 0.6910 0.7255 0.0000
vt 0.7943 0.7199 0.0000
vt 0.7417 0.7562 0.0000
vt 0.8036 0.6479 0.0000
vt 0.6756 0.6547 0.0000
vt 0.7066 0.6308 0.0000
vt 0.0075 0.1445 0.0000
vt 0.0549 0.1790 0.0000
vt 0.5779 0.2530 0.0000
vt 0.6564 0.2530 0.0000
vt 0.6078 0.2765 0.0000
vt 0.6376 0.3001 0.0000
vt 0.7706 0.6274 0.0000
vt 0.7646 0.6234 0.0000
vt 0.7121 0.6254 0.0000
vt 0.2949 0.0182 0.0000
vt 0.2843 0.0182 0.0000
vt 0.3162 0.0798 0.0000
vt 0.0674 0.2578 0.0000
vt 0.0833 0.1989 0.0000
vt 0.0216 0.0182 0.0000
vt 0.0498 0.0182 0.0000
vt 0.2531 0.0182 0.0000
# 82 texture coords

g leg1
usemtl mat1
s 1
f 1/1/1 2/2/1 3/3/1 
f 1/1/2 4/4/2 2/2/2 
f 5/5/3 6/6/3 7/7/3 
f 5/5/4 8/8/4 6/6/4 
f 9/9/5 8/8/5 5/5/5 
f 9/9/6 10/10/6 8/8/6 
f 11/11/7 10/10/7 9/9/7 
f 11/11/8 12/12/8 10/10/8 
f 13/13/9 12/12/9 11/11/9 
f 13/13/10 14/14/10 12/12/10 
f 3/3/11 14/14/11 13/13/11 
f 3/3/12 15/15/12 14/14/12 
f 2/2/13 15/15/13 3/3/13 
f 2/2/14 16/16/14 15/15/14 
f 17/17/15 16/16/15 2/2/15 
f 17/17/16 18/18/16 16/16/16 
f 19/19/17 18/18/17 17/17/17 
f 19/19/18 20/20/18 18/18/18 
f 21/21/19 22/22/19 6/6/19 
f 21/21/20 23/23/20 22/22/20 
f 24/24/21 23/23/21 21/21/21 
f 24/24/22 25/25/22 23/23/22 
f 26/26/23 25/25/23 24/24/23 
f 26/26/24 27/27/24 25/25/24 
f 28/28/25 27/27/25 26/26/25 
f 28/28/26 29/29/26 27/27/26 
f 30/30/27 29/29/27 28/28/27 
f 30/30/28 31/31/28 29/29/28 
f 32/32/29 31/31/29 30/30/29 
f 32/32/30 33/33/30 31/31/30 
f 34/34/31 33/33/31 32/32/31 
f 34/34/32 35/35/32 33/33/32 
f 36/36/33 35/35/33 34/34/33 
f 8/8/34 21/21/34 6/6/34 
f 8/8/35 24/24/35 21/21/35 
f 10/10/36 24/24/36 8/8/36 
f 10/10/37 26/26/37 24/24/37 
f 12/12/38 26/26/38 10/10/38 
f 12/12/39 28/28/39 26/26/39 
f 37/37/40 28/28/40 12/12/40 
f 37/37/41 30/30/41 28/28/41 
f 16/16/42 30/30/42 37/37/42 
f 16/16/43 32/32/43 30/30/43 
f 18/18/44 32/32/44 16/16/44 
f 18/18/45 34/34/45 32/32/45 
f 20/20/46 34/34/46 18/18/46 
f 20/20/47 36/36/47 34/34/47 
f 23/23/48 38/38/48 22/22/48 
f 23/23/49 39/39/49 38/38/49 
f 25/25/50 39/39/50 23/23/50 
f 25/25/51 40/40/51 39/39/51 
f 27/27/52 40/40/52 25/25/52 
f 27/27/53 41/41/53 40/40/53 
f 42/42/54 41/41/54 27/27/54 
f 42/42/55 43/43/55 41/41/55 
f 44/44/56 43/43/56 42/42/56 
f 39/39/57 45/45/57 38/38/57 
f 39/39/58 46/46/58 45/45/58 
f 40/40/59 46/46/59 39/39/59 
f 40/40/60 47/47/60 46/46/60 
f 41/41/61 47/47/61 40/40/61 
f 41/41/62 48/48/62 47/47/62 
f 43/43/63 48/48/63 41/41/63 
f 49/49/64 36/50/64 20/51/64 
f 49/49/65 35/52/65 36/50/65 
f 50/53/66 35/52/66 49/49/66 
f 50/53/67 44/54/67 35/52/67 
f 43/55/68 44/54/68 50/53/68 
f 46/46/69 51/56/69 45/45/69 
f 46/46/70 52/57/70 51/56/70 
f 47/47/71 52/57/71 46/46/71 
f 47/47/72 53/58/72 52/57/72 
f 5/59/73 53/58/73 47/47/73 
f 51/60/74 38/61/74 45/62/74 
f 51/60/74 22/63/74 38/61/74 
f 54/64/74 22/63/74 51/60/74 
f 54/64/74 55/65/74 22/63/74 
f 48/66/75 9/9/75 5/5/75 
f 48/66/76 56/67/76 9/9/76 
f 43/55/77 56/67/77 48/66/77 
f 43/55/78 50/53/78 56/67/78 
f 57/68/74 22/69/74 58/69/74 
f 57/68/79 59/70/79 22/69/79 
f 58/69/80 59/70/80 57/68/80 
f 58/69/81 6/71/81 59/70/81 
f 54/69/74 60/68/74 55/69/74 
f 54/69/82 61/70/82 60/68/82 
f 53/71/83 61/70/83 54/69/83 
f 53/71/84 55/69/84 61/70/84 
f 62/70/85 63/69/85 7/71/85 
f 62/70/86 64/68/86 63/69/86 
f 65/69/87 64/68/87 62/70/87 
f 65/69/74 63/69/74 64/68/74 
f 55/65/74 58/72/74 22/63/74 
f 55/65/74 65/73/74 58/72/74 
f 63/74/74 65/73/74 55/65/74 
f 53/58/88 63/75/88 55/76/88 
f 53/58/89 7/77/89 63/75/89 
f 5/59/90 7/77/90 53/58/90 
f 37/37/91 15/15/91 16/16/91 
f 37/37/92 14/14/92 15/15/92 
f 12/12/93 14/14/93 37/37/93 
f 44/44/94 33/33/94 35/35/94 
f 44/44/95 31/31/95 33/33/95 
f 42/42/96 31/31/96 44/44/96 
f 66/78/97 50/53/97 49/49/97 
f 66/78/98 67/79/98 50/53/98 
f 65/80/99 6/6/99 58/81/99 
f 65/80/100 7/7/100 6/6/100 
f 4/4/101 17/17/101 2/2/101 
f 4/4/102 19/19/102 17/17/102 
f 13/13/103 67/79/103 3/3/103 
f 13/13/104 11/11/104 67/79/104 
f 67/79/105 56/67/105 50/53/105 
f 67/79/106 11/11/106 56/67/106 
f 54/82/107 52/57/107 53/58/107 
f 54/82/108 51/56/108 52/57/108 
f 29/29/109 42/42/109 27/27/109 
f 29/29/110 31/31/110 42/42/110 
f 9/9/111 56/67/111 11/11/111 
f 22/69/112 59/70/112 6/71/112 
f 55/69/113 60/68/113 61/70/113 
f 5/59/114 47/47/114 48/48/114 
f 65/69/115 62/70/115 7/71/115 
# 0 polygons - 124 triangles

