# 3ds Max Wavefront OBJ Exporter v0.97b - (c)2007 guruware
# File Created: 15.04.2019 21:15:44

mtllib charizard_leg2.mtl

#
# object leg2
#

v  -13.6756 19.3997 -6.4940
v  -11.6067 21.6759 -6.5577
v  -9.9806 14.3283 -4.2156
v  -13.0761 24.3451 -3.5561
v  -16.4916 21.7318 -3.7132
v  -13.3603 24.9575 1.3481
v  -17.4016 23.2816 1.0250
v  -19.2083 18.6896 -3.0873
v  -19.9822 19.9824 2.4416
v  -21.5215 16.4915 3.9663
v  -19.0198 16.7754 8.7063
v  -22.1311 12.6240 3.9301
v  -19.7542 13.1556 9.3746
v  -20.8764 8.9551 1.5154
v  -19.7145 8.6963 7.1468
v  -18.8424 5.0147 -2.7154
v  -20.0552 5.1365 2.7219
v  -20.1569 2.1639 -3.7464
v  -21.5851 3.1603 6.3056
v  -20.1267 0.0000 -2.7952
v  -21.5419 0.0000 6.3038
v  -15.8316 5.1809 6.8071
v  -20.1503 3.1899 7.4037
v  -15.8462 3.7024 10.6895
v  -16.0126 8.2448 10.3159
v  -15.4409 12.6666 11.9193
v  -14.5602 16.2529 11.2313
v  -17.7269 19.9593 7.4607
v  -16.2134 22.7475 5.9436
v  -12.3702 24.0176 6.3970
v  -14.6645 16.5190 -6.6419
v  -20.8707 15.7486 -1.9752
v  -15.4462 13.7894 -5.2950
v  -15.9073 10.6128 -2.8762
v  -9.5731 11.9650 -3.6161
v  -9.5638 9.8697 -1.1027
v  -8.1751 11.8017 3.9717
v  -10.3251 10.4993 8.7211
v  -9.9594 14.8585 8.1410
v  -21.3529 12.3362 0.0253
v  -16.0280 9.0051 -3.3268
v  -10.4485 7.7959 -1.2795
v  -11.5426 5.0063 -2.2761
v  -10.9492 5.1018 3.4423
v  -9.7814 3.2322 6.9314
v  -11.2976 3.2438 7.8730
v  -9.7977 0.0000 6.9306
v  -15.4627 4.9706 -5.2999
v  -10.6433 2.2453 -3.1606
v  -10.6512 0.0000 -2.2767
v  -15.4769 2.1512 -6.4906
v  -15.4755 0.0000 -5.6070
v  -11.0826 7.4453 6.8474
v  -15.8493 2.1607 13.8753
v  -17.7691 0.0000 9.0532
v  -13.8290 0.0000 9.2112
v  -15.8524 0.0000 15.8266
v  -13.1388 21.5598 8.2623
v  -13.7540 19.4100 9.9396
v  -21.3357 2.2070 9.8216
v  -18.6927 0.0000 8.5001
v  -22.3102 0.0000 11.8033
v  -9.1330 0.0000 12.2792
v  -12.8206 0.0000 8.8135
v  -10.1128 1.9461 10.3152
v  -10.7238 19.2177 8.0907
v  -9.5174 15.6499 6.8306
# 67 vertices

vn 0.2415 -0.2458 -0.9388
vn -0.5450 0.4761 -0.6902
vn -0.5984 0.7901 -0.1333
vn -0.3347 0.8747 -0.3504
vn -0.7362 0.5887 -0.3339
vn -0.8120 0.5328 -0.2383
vn -0.9255 0.3189 -0.2041
vn -0.7745 0.5068 0.3784
vn -0.8797 0.1344 0.4562
vn -0.8962 0.2496 0.3669
vn -0.7659 -0.5151 0.3847
vn -0.9747 -0.1067 0.1962
vn -0.8099 -0.5694 0.1409
vn -0.9125 0.3501 -0.2114
vn -0.8595 0.4695 -0.2022
vn -0.9031 0.3954 -0.1675
vn -0.9884 -0.0724 -0.1333
vn -0.9880 -0.0134 -0.1537
vn -0.3569 0.8734 0.3313
vn -0.3509 0.8671 0.3534
vn -0.5212 -0.6560 0.5459
vn -0.5475 -0.6309 0.5497
vn -0.6522 -0.1825 0.7358
vn -0.5002 -0.3905 0.7728
vn -0.4651 0.2756 0.8413
vn -0.4547 0.2501 0.8548
vn -0.3929 0.4690 0.7910
vn -0.8047 0.4691 0.3638
vn -0.7396 0.5837 0.3350
vn -0.7105 0.6603 0.2433
vn -0.3277 0.9275 0.1799
vn -0.3881 0.8894 0.2417
vn -0.3534 0.5091 -0.7848
vn -0.5272 0.3078 -0.7920
vn -0.5317 0.2244 -0.8167
vn -0.6037 0.0402 -0.7962
vn -0.5669 -0.2282 -0.7916
vn -0.5790 -0.4391 -0.6870
vn 0.0374 -0.6088 -0.7924
vn 0.0888 -0.7649 -0.6380
vn 0.9600 -0.2134 -0.1815
vn 0.6664 -0.7390 0.0990
vn 0.9131 -0.0224 0.4072
vn 0.5486 0.0649 0.8336
vn 0.5618 0.0207 0.8270
vn -0.8840 0.4421 -0.1521
vn -0.9905 0.0711 -0.1174
vn -0.5255 -0.3738 -0.7643
vn -0.3825 0.2759 -0.8818
vn 0.3781 0.2234 -0.8984
vn 0.3729 0.1790 -0.9105
vn 0.9377 -0.3350 -0.0917
vn 0.9179 0.3836 -0.1017
vn 0.2497 0.8858 0.3911
vn 0.5276 -0.0029 0.8495
vn -0.9667 0.1543 -0.2041
vn -0.9611 -0.2129 -0.1759
vn -0.6514 -0.3810 -0.6562
vn -0.6874 0.2391 -0.6858
vn 0.5496 0.4279 -0.7175
vn 0.5541 0.4122 -0.7232
vn 0.9335 0.3403 -0.1130
vn 0.9964 -0.0050 -0.0846
vn 0.9949 -0.0398 -0.0922
vn 0.5436 -0.3091 -0.7803
vn 0.5383 -0.3199 -0.7797
vn -0.4774 -0.3341 -0.8127
vn -0.4831 -0.3580 -0.7991
vn 0.2828 0.8764 0.3898
vn 0.3589 -0.7623 0.5387
vn 0.9957 -0.0529 0.0754
vn 0.9167 -0.3957 0.0545
vn 0.2657 -0.0312 -0.9635
vn -0.9032 0.3867 0.1863
vn 0.8918 0.4069 0.1978
vn 0.9249 0.2541 0.2829
vn 0.0000 -1.0000 -0.0000
vn -0.9341 0.2400 0.2643
vn -0.2940 0.6345 0.7149
vn -0.2904 0.6389 0.7124
vn -0.3669 0.5904 0.7189
vn -0.4330 0.4339 0.7901
vn 0.6826 0.4963 0.5364
vn 0.6334 0.3432 0.6936
vn -0.9451 0.2988 -0.1320
vn 0.9291 0.3513 -0.1155
vn 0.8717 0.4556 -0.1808
vn -0.6631 0.4783 0.5758
vn 0.3652 0.0970 0.9259
vn 0.5216 -0.0558 0.8514
vn 0.3006 0.8909 0.3404
vn 0.3297 -0.7026 0.6306
vn 0.4201 -0.5480 0.7234
vn 0.9517 -0.2928 0.0925
vn 0.5318 0.3272 -0.7811
vn -0.5726 0.3214 -0.7542
vn -0.4432 0.4785 -0.7580
vn 0.4745 0.4332 0.7663
vn 0.4865 0.4466 0.7509
vn -0.5128 0.0600 0.8564
vn -0.6034 -0.0386 0.7965
vn 0.9334 0.0633 0.3531
vn 0.9010 0.1626 0.4021
vn 0.9764 0.1234 -0.1772
vn 0.2091 -0.2064 -0.9559
vn 0.5229 0.1014 0.8464
vn 0.5849 0.1747 0.7920
vn 0.4211 -0.0983 -0.9017
vn 0.2153 -0.4810 -0.8499
vn -0.2951 0.8844 0.3617
vn -0.6076 -0.0088 0.7942
vn -0.5294 0.4788 -0.7004
vn 0.3810 -0.3583 0.8523
vn -0.8584 0.4557 -0.2356
vn -0.6379 0.3638 0.6788
# 115 vertex normals

vt 0.1407 0.3146 0.0000
vt 0.0954 0.3569 0.0000
vt 0.1004 0.2395 0.0000
vt 0.1700 0.4061 0.0000
vt 0.1822 0.3598 0.0000
vt 0.2263 0.4310 0.0000
vt 0.2334 0.3747 0.0000
vt 0.1981 0.3044 0.0000
vt 0.2500 0.3242 0.0000
vt 0.2596 0.2707 0.0000
vt 0.2964 0.2751 0.0000
vt 0.2578 0.2115 0.0000
vt 0.2945 0.2197 0.0000
vt 0.2406 0.1553 0.0000
vt 0.2868 0.1514 0.0000
vt 0.1965 0.0950 0.0000
vt 0.2539 0.0969 0.0000
vt 0.1952 0.0514 0.0000
vt 0.2433 0.0666 0.0000
vt 0.1999 0.0182 0.0000
vt 0.2531 0.0182 0.0000
vt 0.3155 0.0976 0.0000
vt 0.2676 0.0671 0.0000
vt 0.3162 0.0798 0.0000
vt 0.3169 0.1445 0.0000
vt 0.3206 0.2122 0.0000
vt 0.3251 0.2671 0.0000
vt 0.2925 0.3238 0.0000
vt 0.2898 0.3665 0.0000
vt 0.2968 0.4095 0.0000
vt 0.1499 0.2711 0.0000
vt 0.2114 0.2594 0.0000
vt 0.1590 0.2294 0.0000
vt 0.1659 0.1807 0.0000
vt 0.1124 0.2014 0.0000
vt 0.0960 0.1693 0.0000
vt 0.0833 0.1989 0.0000
vt 0.0549 0.1790 0.0000
vt 0.0575 0.2457 0.0000
vt 0.0099 0.2122 0.0000
vt 0.0130 0.2671 0.0000
vt 0.2280 0.2071 0.0000
vt 0.1664 0.1561 0.0000
vt 0.1011 0.1376 0.0000
vt 0.1213 0.0949 0.0000
vt 0.0733 0.0963 0.0000
vt 0.0926 0.0677 0.0000
vt 0.0641 0.0679 0.0000
vt 0.0764 0.0182 0.0000
vt 0.1587 0.0944 0.0000
vt 0.1180 0.0526 0.0000
vt 0.1129 0.0182 0.0000
vt 0.1587 0.0512 0.0000
vt 0.1589 0.0182 0.0000
vt 0.0066 0.0976 0.0000
vt 0.0569 0.1322 0.0000
vt 0.6078 0.2765 0.0000
vt 0.6376 0.3001 0.0000
vt 0.6564 0.2530 0.0000
vt 0.5779 0.2530 0.0000
vt 0.3162 0.3602 0.0000
vt 0.3221 0.3154 0.0000
vt 0.7066 0.6308 0.0000
vt 0.7646 0.6234 0.0000
vt 0.7121 0.6254 0.0000
vt 0.7706 0.6274 0.0000
vt 0.8036 0.6479 0.0000
vt 0.0216 0.0182 0.0000
vt 0.0498 0.0182 0.0000
vt 0.0071 0.0749 0.0000
vt 0.0075 0.1445 0.0000
vt 0.0222 0.3476 0.0000
vt 0.0586 0.3125 0.0000
vt 0.0301 0.3787 0.0000
vt 0.0179 0.3154 0.0000
vt 0.7943 0.7199 0.0000
vt 0.6910 0.7255 0.0000
vt 0.7417 0.7562 0.0000
vt 0.2949 0.0182 0.0000
vt 0.2843 0.0182 0.0000
vt 0.6756 0.6547 0.0000
vt 0.0674 0.2578 0.0000
# 82 texture coords

g legizq
usemtl wire_087224198
s off
f 1/1/1 2/2/1 3/3/1 
f 1/1/2 4/4/2 2/2/2 
f 5/5/3 6/6/3 4/4/3 
f 5/5/4 7/7/4 6/6/4 
f 8/8/5 7/7/5 5/5/5 
f 8/8/6 9/9/6 7/7/6 
f 10/10/7 9/9/7 8/8/7 
f 10/10/8 11/11/8 9/9/8 
f 12/12/9 11/11/9 10/10/9 
f 12/12/10 13/13/10 11/11/10 
f 14/14/11 13/13/11 12/12/11 
f 14/14/12 15/15/12 13/13/12 
f 16/16/13 15/15/13 14/14/13 
f 16/16/14 17/17/14 15/15/14 
f 18/18/15 17/17/15 16/16/15 
f 18/18/16 19/19/16 17/17/16 
f 20/20/17 19/19/17 18/18/17 
f 20/20/18 21/21/18 19/19/18 
f 22/22/19 23/23/19 24/24/19 
f 22/22/20 17/17/20 23/23/20 
f 25/25/21 17/17/21 22/22/21 
f 25/25/22 15/15/22 17/17/22 
f 26/26/23 15/15/23 25/25/23 
f 26/26/24 13/13/24 15/15/24 
f 27/27/25 13/13/25 26/26/25 
f 27/27/26 11/11/26 13/13/26 
f 28/28/27 11/11/27 27/27/27 
f 28/28/28 9/9/28 11/11/28 
f 29/29/29 9/9/29 28/28/29 
f 29/29/30 7/7/30 9/9/30 
f 30/30/31 7/7/31 29/29/31 
f 30/30/32 6/6/32 7/7/32 
f 1/1/33 5/5/33 4/4/33 
f 1/1/34 8/8/34 5/5/34 
f 31/31/35 8/8/35 1/1/35 
f 31/31/36 32/32/36 8/8/36 
f 33/33/37 32/32/37 31/31/37 
f 33/33/38 34/34/38 32/32/38 
f 35/35/39 34/34/39 33/33/39 
f 35/35/40 36/36/40 34/34/40 
f 37/37/41 36/36/41 35/35/41 
f 37/37/42 38/38/42 36/36/42 
f 39/39/43 38/38/43 37/37/43 
f 39/39/44 26/40/44 38/38/44 
f 27/41/45 26/40/45 39/39/45 
f 32/32/46 10/10/46 8/8/46 
f 32/32/47 40/42/47 10/10/47 
f 34/34/48 40/42/48 32/32/48 
f 34/34/49 41/43/49 40/42/49 
f 42/44/50 41/43/50 34/34/50 
f 42/44/51 43/45/51 41/43/51 
f 44/46/52 43/45/52 42/44/52 
f 44/46/53 45/47/53 43/45/53 
f 46/48/54 45/47/54 44/46/54 
f 46/48/55 47/49/55 45/47/55 
f 40/42/56 12/12/56 10/10/56 
f 40/42/57 14/14/57 12/12/57 
f 41/43/58 14/14/58 40/42/58 
f 41/43/59 48/50/59 14/14/59 
f 43/45/60 48/50/60 41/43/60 
f 43/45/61 49/51/61 48/50/61 
f 45/47/62 49/51/62 43/45/62 
f 45/47/63 47/49/63 49/51/63 
f 50/52/64 49/51/64 47/49/64 
f 50/52/65 51/53/65 49/51/65 
f 52/54/66 51/53/66 50/52/66 
f 52/54/67 18/18/67 51/53/67 
f 20/20/68 18/18/68 52/54/68 
f 44/46/69 22/55/69 46/48/69 
f 44/46/70 53/56/70 22/55/70 
f 42/44/71 53/56/71 44/46/71 
f 42/44/72 36/36/72 53/56/72 
f 34/34/73 36/36/73 42/44/73 
f 54/57/74 24/58/74 55/59/74 
f 54/57/75 56/59/75 24/58/75 
f 57/60/76 56/59/76 54/57/76 
f 57/60/77 55/59/77 56/59/77 
f 54/57/78 55/59/78 57/60/78 
f 29/29/79 58/61/79 30/30/79 
f 29/29/80 59/62/80 58/61/80 
f 28/28/81 59/62/81 29/29/81 
f 28/28/82 27/27/82 59/62/82 
f 60/57/83 61/59/83 23/58/83 
f 60/57/84 62/60/84 61/59/84 
f 21/59/85 62/60/85 60/57/85 
f 21/59/77 61/59/77 62/60/77 
f 47/59/77 63/60/77 64/59/77 
f 47/59/86 65/57/86 63/60/86 
f 46/58/87 65/57/87 47/59/87 
f 46/58/88 64/59/88 65/57/88 
f 61/63/77 56/64/77 55/65/77 
f 61/63/77 64/66/77 56/64/77 
f 47/67/77 64/66/77 61/63/77 
f 46/48/89 56/68/89 64/69/89 
f 46/48/90 24/70/90 56/68/90 
f 22/55/91 24/70/91 46/48/91 
f 53/56/92 25/71/92 22/55/92 
f 53/56/93 38/38/93 25/71/93 
f 36/36/94 38/38/94 53/56/94 
f 51/53/95 48/50/95 49/51/95 
f 51/53/96 16/16/96 48/50/96 
f 18/18/97 16/16/97 51/53/97 
f 58/72/98 66/73/98 30/74/98 
f 58/72/99 59/75/99 66/73/99 
f 50/76/77 20/77/77 52/78/77 
f 50/76/77 47/67/77 20/77/77 
f 55/79/100 23/23/100 61/80/100 
f 55/79/101 24/24/101 23/23/101 
f 47/67/77 21/81/77 20/77/77 
f 47/67/77 61/63/77 21/81/77 
f 67/82/102 39/39/102 37/37/102 
f 67/82/103 66/73/103 39/39/103 
f 35/35/104 3/3/104 37/37/104 
f 35/35/105 33/33/105 3/3/105 
f 59/75/106 39/39/106 66/73/106 
f 59/75/107 27/41/107 39/39/107 
f 3/3/108 31/31/108 1/1/108 
f 3/3/109 33/33/109 31/31/109 
f 19/19/110 23/23/110 17/17/110 
f 19/19/111 21/21/111 23/23/111 
f 16/16/112 14/14/112 48/50/112 
f 38/38/113 26/40/113 25/71/113 
f 21/59/114 60/57/114 23/58/114 
f 63/60/115 65/57/115 64/59/115 
# 0 polygons - 124 triangles

