# Blender v2.79 (sub 0) OBJ File: ''
# www.blender.org
mtllib sqP.mtl
o polygon1_mat1_polygon1_mat1
v 0.460055 1.071159 -0.224871
v 0.896060 1.055647 0.141340
v 0.995935 1.244677 -0.130845
v 0.566254 0.982887 0.126353
v 0.386455 0.861974 -0.147252
v 0.610519 0.807099 0.190697
v 0.408930 0.677039 -0.190620
v 0.631405 0.571681 0.147206
v 0.431004 0.415942 -0.267771
v 0.648376 0.332683 0.047857
v 0.448248 0.221777 -0.292501
v 0.642490 0.132785 -0.005512
v 0.450363 0.079514 -0.333727
v 0.640693 0.017680 -0.025624
v 0.708964 1.205848 -0.408526
v 0.521509 0.990727 -0.468638
v 0.859083 1.070744 -0.535677
v 0.919078 0.863245 -0.649681
v 1.228507 0.814428 -0.447558
v 1.232988 0.576956 -0.510515
v 1.220518 0.460785 -0.159142
v 1.194141 0.327984 -0.526574
v 1.182552 0.249495 -0.210741
v 1.362883 0.127748 -0.478710
v 1.212842 0.080126 -0.268080
v -0.852217 1.049008 -0.587175
v -1.017531 1.219102 -0.191438
v -0.713491 1.187781 -0.451332
v -1.158958 1.033718 -0.401712
v -1.219647 0.783332 -0.521231
v -1.178458 0.943826 -0.102467
v -1.244753 0.666394 -0.174577
v -1.001875 0.568399 0.100085
v -1.019225 0.310160 0.036371
v -0.658313 0.316086 0.008534
v -0.644158 0.116443 -0.044232
v -0.435335 0.210554 -0.319091
v -0.431356 0.068315 -0.360261
v 0.524054 0.809727 -0.548550
v 0.559220 0.547212 -0.574185
v 0.940586 0.625548 -0.692022
v 0.903944 0.366336 -0.682904
v 1.121396 0.188589 -0.786736
v -0.638235 0.001435 -0.064110
v -0.983817 -0.009218 -0.045035
v -0.987093 0.125006 -0.017219
v -1.196173 0.049527 -0.340574
v -1.173692 0.219567 -0.281648
v -1.334439 0.093487 -0.559880
v -1.168260 0.297977 -0.597666
v -1.149400 0.106293 -0.603522
v -1.076491 0.160672 -0.852878
v 0.982852 0.150028 0.042063
v 1.006995 0.335897 0.097346
v 1.235685 0.697900 -0.099932
v 0.979298 0.593563 0.159705
v 1.158166 0.973505 -0.032150
v 0.928596 0.856434 0.206522
v -0.899964 0.840140 -0.704422
v -1.214307 0.545871 -0.584162
v -0.912849 0.602006 -0.747798
v -0.870256 0.343800 -0.736295
v -0.537393 0.533283 -0.607184
v -0.565959 0.314395 -0.595611
v -0.929435 1.032460 0.086406
v -0.960765 0.832435 0.149665
v -0.641163 0.791200 0.153030
v -0.653415 0.555362 0.108541
v -0.413779 0.666589 -0.215378
v -0.424542 0.405075 -0.293517
v -0.590372 0.131985 -0.674188
v -0.683422 0.178178 -0.899936
v -0.843913 0.142956 -0.748606
v -0.517363 0.977530 -0.499901
v -0.510505 0.796586 -0.579683
v -0.472736 1.059311 -0.252942
v -0.597585 0.968104 0.091329
v -0.398651 0.852002 -0.170878
v 0.626299 0.147439 -0.637576
v 0.592583 0.329111 -0.560747
v -1.220041 0.429784 -0.232586
v 0.880898 0.101826 -0.400034
v 0.731550 0.196151 -0.857356
v 0.883494 0.164898 -0.696623
v 0.984661 0.015786 0.014202
v 1.154408 1.063101 -0.332098
v -0.857553 0.079744 -0.452350
v 1.180538 0.135888 -0.533407
v -0.946966 0.889158 0.079681
v 0.475075 0.722632 -0.249272
v 1.026811 1.104928 -0.044568
v -0.477412 0.710534 -0.277935
v 0.917594 0.912842 0.135791
vt 0.395660 0.941315
vt 0.309875 0.948395
vt 0.395660 0.979584
vt 0.362732 0.939270
vt 0.395660 0.916290
vt 0.352570 0.917938
vt 0.395660 0.891266
vt 0.350616 0.886810
vt 0.395660 0.855316
vt 0.352203 0.851776
vt 0.395660 0.828308
vt 0.352020 0.824158
vt 0.395660 0.806427
vt 0.351654 0.806427
vt 0.108185 0.953217
vt 0.035919 0.941315
vt 0.035919 0.979584
vt 0.076019 0.922791
vt 0.141724 0.931610
vt 0.145264 0.901154
vt 0.199890 0.899597
vt 0.198730 0.867310
vt 0.250305 0.859192
vt 0.196777 0.832672
vt 0.251038 0.830719
vt 0.224823 0.794647
vt 0.246246 0.806427
vt 0.141724 0.931610
vt 0.162781 0.979584
vt 0.108185 0.953217
vt 0.203003 0.935547
vt 0.199890 0.899597
vt 0.258179 0.932159
vt 0.252258 0.894562
vt 0.298004 0.888672
vt 0.300476 0.852692
vt 0.352203 0.851776
vt 0.352020 0.824158
vt 0.395660 0.828308
vt 0.395660 0.806427
vt 0.035919 0.916290
vt 0.035919 0.891266
vt 0.083344 0.897949
vt 0.084473 0.862793
vt 0.144562 0.868805
vt 0.140350 0.834045
vt 0.166626 0.794647
vt 0.351654 0.806427
vt 0.303192 0.806427
vt 0.301910 0.825775
vt 0.246246 0.806427
vt 0.251038 0.830719
vt 0.224823 0.794647
vt 0.196777 0.832672
vt 0.205658 0.806427
vt 0.166626 0.794647
vt 0.301910 0.825775
vt 0.300476 0.852692
vt 0.252258 0.894562
vt 0.298004 0.888672
vt 0.258179 0.932159
vt 0.303314 0.924042
vt 0.145264 0.901154
vt 0.198730 0.867310
vt 0.144562 0.868805
vt 0.140350 0.834045
vt 0.084473 0.862793
vt 0.083313 0.833984
vt 0.035919 0.828308
vt 0.254608 0.979584
vt 0.309875 0.948395
vt 0.303314 0.924042
vt 0.352570 0.917938
vt 0.350616 0.886810
vt 0.395660 0.891266
vt 0.395660 0.855316
vt 0.087982 0.806427
vt 0.035919 0.806427
vt 0.107391 0.794647
vt 0.129761 0.806427
vt 0.076019 0.922791
vt 0.083344 0.897949
vt 0.035919 0.891266
vt 0.035919 0.855316
vt 0.395660 0.941315
vt 0.395660 0.979584
vt 0.362732 0.939270
vt 0.395660 0.916290
vt 0.035919 0.828308
vt 0.087982 0.806427
vt 0.035919 0.806427
vt 0.083313 0.833984
vt 0.250305 0.859192
vt 0.852173 0.605896
vt 0.786560 0.532623
vt 0.834503 0.551178
vt 0.788055 0.602325
vt 0.865051 0.640869
vt 0.820129 0.637390
vt 0.303192 0.806427
vt 0.254608 0.979584
vt 0.203003 0.935547
vt 0.786560 0.532623
vt 0.852173 0.605896
vt 0.834503 0.551178
vt 0.788055 0.602325
vt 0.724335 0.620880
vt 0.714569 0.658844
vt 0.035919 0.941315
vt 0.035919 0.979584
vt 0.035919 0.916290
vt 0.035919 0.855316
vt 0.758881 0.644684
vt 0.790558 0.669800
vt 0.820129 0.637390
vt 0.865051 0.640869
vt 0.107391 0.794647
vt 0.724335 0.620880
vt 0.736328 0.562439
vt 0.714569 0.658844
vt 0.758881 0.644684
vt 0.790558 0.669800
vt 0.129761 0.806427
vt 0.162781 0.979584
vt 0.205658 0.806427
vt 0.736328 0.562439
vt 0.669891 0.595917
vt 0.667114 0.547180
vt 0.535400 0.524567
vn -0.4959 0.7746 0.3925
vn 0.0762 0.6330 0.7704
vn -0.3456 0.8254 0.4464
vn -0.5919 0.4928 0.6378
vn -0.8665 0.0681 0.4946
vn -0.5241 0.0060 0.8516
vn -0.8405 -0.2019 0.5028
vn -0.4878 -0.2653 0.8316
vn -0.8355 -0.2082 0.5085
vn -0.5131 -0.2612 0.8176
vn -0.8372 -0.1407 0.5285
vn -0.4771 -0.1972 0.8564
vn -0.8483 -0.1195 0.5159
vn -0.5397 -0.1367 0.8307
vn -0.2728 0.8574 -0.4365
vn -0.7163 0.6753 -0.1759
vn -0.3351 0.9166 0.2181
vn -0.6864 0.3582 -0.6329
vn 0.2125 0.6423 -0.7364
vn 0.0798 0.3068 -0.9484
vn 0.9002 0.2766 -0.3364
vn 0.7737 0.0292 -0.6329
vn 0.9560 -0.1657 0.2420
vn 0.8768 0.1885 -0.4425
vn 0.9094 0.0222 0.4154
vn 0.9418 0.3210 -0.1000
vn 0.8001 -0.0751 0.5951
vn -0.1841 0.6372 -0.7484
vn 0.1484 0.9875 0.0529
vn 0.2767 0.8644 -0.4199
vn -0.7485 0.5809 -0.3199
vn -0.8851 0.2540 -0.3901
vn -0.8619 0.2879 0.4175
vn -0.9272 -0.0351 0.3730
vn -0.4177 -0.1688 0.8928
vn -0.4190 -0.2613 0.8696
vn 0.4694 -0.2487 0.8472
vn 0.4296 -0.1856 0.8837
vn 0.8072 -0.1198 0.5780
vn 0.8185 -0.0984 0.5661
vn -0.9309 0.0979 -0.3519
vn -0.9388 0.0064 -0.3445
vn -0.6977 0.1314 -0.7042
vn -0.6669 -0.0215 -0.7449
vn 0.1216 0.0665 -0.9904
vn 0.1215 0.2214 -0.9676
vn 0.4679 0.3820 -0.7970
vn 0.4921 -0.1236 0.8617
vn -0.2578 -0.1893 0.9475
vn -0.5994 -0.2402 0.7636
vn -0.8323 -0.0959 0.5460
vn -0.9330 -0.0012 0.3599
vn -0.9419 0.2970 -0.1567
vn -0.8531 0.1666 -0.4945
vn -0.6805 -0.0446 -0.7314
vn -0.4286 0.3706 -0.8240
vn 0.5583 -0.2255 0.7984
vn 0.3724 -0.2512 0.8934
vn 0.9036 -0.0118 0.4281
vn 0.3675 -0.1588 0.9164
vn 0.8276 0.3094 0.4683
vn 0.2594 0.0628 0.9637
vn -0.0304 0.3054 -0.9517
vn -0.7347 0.0100 -0.6783
vn -0.0635 0.0641 -0.9959
vn -0.0686 0.2190 -0.9733
vn 0.7108 -0.0040 -0.7034
vn 0.7825 0.1536 -0.6034
vn 0.9109 0.0142 -0.4125
vn -0.7577 0.5543 0.3445
vn -0.1384 0.6303 0.7639
vn -0.3184 0.0554 0.9463
vn 0.4716 0.0186 0.8816
vn 0.4435 -0.2535 0.8597
vn 0.8136 -0.1809 0.5525
vn 0.8084 -0.1874 0.5580
vn 0.9118 0.0799 -0.4029
vn 0.8941 0.1474 -0.4230
vn 0.2940 0.4352 -0.8509
vn -0.1607 0.0393 -0.9862
vn 0.7139 0.3760 -0.5907
vn 0.7352 0.1496 -0.6611
vn 0.9573 0.0305 -0.2874
vn 0.9438 0.0243 -0.3296
vn 0.4516 0.7867 0.4210
vn 0.2971 0.8336 0.4658
vn 0.5398 0.5072 0.6719
vn 0.8332 0.0897 0.5457
vn -0.8845 -0.0086 -0.4665
vn -0.8876 0.0570 -0.4570
vn -0.8705 0.1250 -0.4761
vn -0.7485 0.1342 -0.6494
vn -0.9643 -0.1901 0.1842
vn 0.0187 -0.9780 -0.2078
vn 0.2051 -0.1835 0.9614
vn 0.7212 0.5731 0.3891
vn 0.7514 0.5999 -0.2747
vn 0.7082 0.6934 -0.1330
vn 0.9476 0.1218 -0.2954
vn -0.9226 0.0006 -0.3858
vn -0.2533 0.4283 -0.8674
vn 0.2187 0.0442 -0.9748
vn 0.3417 0.8161 -0.4661
vn 0.7241 -0.0267 -0.6891
vn 0.6175 -0.6952 -0.3679
vn 0.5997 -0.7116 -0.3661
vn 0.6462 -0.6778 -0.3508
usemtl mat1.002
s 1
f 1/1/1 2/2/2 3/3/3
f 1/1/1 4/4/4 2/2/2
f 4/4/4 1/1/1 5/5/5
f 5/5/5 6/6/6 4/4/4
f 7/7/7 6/6/6 5/5/5
f 7/7/7 8/8/8 6/6/6
f 9/9/9 8/8/8 7/7/7
f 9/9/9 10/10/10 8/8/8
f 11/11/11 10/10/10 9/9/9
f 11/11/11 12/12/12 10/10/10
f 13/13/13 12/12/12 11/11/11
f 13/13/13 14/14/14 12/12/12
f 15/15/15 1/16/16 3/17/17
f 15/15/15 16/18/18 1/16/16
f 17/19/19 16/18/18 15/15/15
f 17/19/19 18/20/20 16/18/18
f 19/21/21 18/20/20 17/19/19
f 19/21/21 20/22/22 18/20/20
f 21/23/23 20/22/22 19/21/21
f 21/23/23 22/24/24 20/22/22
f 23/25/25 22/24/24 21/23/23
f 23/25/25 24/26/26 22/24/24
f 25/27/27 24/26/26 23/25/25
f 26/28/28 27/29/29 28/30/30
f 26/28/28 29/31/31 27/29/29
f 30/32/32 29/31/31 26/28/28
f 30/32/32 31/33/33 29/31/31
f 32/34/34 31/33/33 30/32/32
f 32/34/34 33/35/35 31/33/33
f 34/36/36 33/35/35 32/34/34
f 34/36/36 35/37/37 33/35/35
f 36/38/38 35/37/37 34/36/36
f 36/38/38 37/39/39 35/37/37
f 38/40/40 37/39/39 36/38/38
f 16/18/18 5/41/41 1/16/16
f 16/18/18 7/42/42 5/41/41
f 39/43/43 7/42/42 16/18/18
f 39/43/43 40/44/44 7/42/42
f 18/20/20 40/44/44 39/43/43
f 18/20/20 41/45/45 40/44/44
f 20/22/22 41/45/45 18/20/20
f 20/22/22 42/46/46 41/45/45
f 22/24/24 42/46/46 20/22/22
f 22/24/24 43/47/47 42/46/46
f 36/38/38 44/48/48 38/40/40
f 36/38/38 45/49/49 44/48/48
f 46/50/50 45/49/49 36/38/38
f 46/50/50 47/51/51 45/49/49
f 48/52/52 47/51/51 46/50/50
f 48/52/52 49/53/53 47/51/51
f 50/54/54 49/53/53 48/52/52
f 50/54/54 51/55/55 49/53/53
f 52/56/56 51/55/55 50/54/54
f 21/23/23 53/57/57 23/25/25
f 21/23/23 54/58/58 53/57/57
f 55/59/59 54/58/58 21/23/23
f 55/59/59 56/60/60 54/58/58
f 57/61/61 56/60/60 55/59/59
f 57/61/61 58/62/62 56/60/60
f 2/2/2 58/62/62 57/61/61
f 2/2/2 6/6/6 58/62/62
f 4/4/4 6/6/6 2/2/2
f 59/63/63 30/32/32 26/28/28
f 59/63/63 60/64/64 30/32/32
f 61/65/65 60/64/64 59/63/63
f 61/65/65 62/66/66 60/64/64
f 63/67/67 62/66/66 61/65/65
f 63/67/67 64/68/68 62/66/66
f 37/69/69 64/68/68 63/67/67
f 31/33/33 27/70/70 29/31/31
f 31/33/33 65/71/71 27/70/70
f 66/72/72 65/71/71 31/33/33
f 66/72/72 67/73/73 65/71/71
f 68/74/74 67/73/73 66/72/72
f 68/74/74 69/75/75 67/73/73
f 70/76/76 69/75/75 68/74/74
f 71/77/77 37/69/69 38/78/78
f 71/77/77 64/68/68 37/69/69
f 72/79/79 64/68/68 71/77/77
f 72/79/79 62/66/66 64/68/68
f 73/80/80 62/66/66 72/79/79
f 73/80/80 52/56/56 62/66/66
f 54/58/58 12/12/12 53/57/57
f 54/58/58 10/10/10 12/12/12
f 56/60/60 10/10/10 54/58/58
f 56/60/60 8/8/8 10/10/10
f 58/62/62 8/8/8 56/60/60
f 58/62/62 6/6/6 8/8/8
f 74/81/81 26/28/28 28/30/30
f 74/81/81 59/63/63 26/28/28
f 75/82/82 59/63/63 74/81/81
f 75/82/82 63/67/67 59/63/63
f 69/83/83 63/67/67 75/82/82
f 69/83/83 70/84/84 63/67/67
f 65/71/71 76/85/85 27/86/86
f 65/71/71 77/87/87 76/85/85
f 67/73/73 77/87/87 65/71/71
f 67/73/73 78/88/88 77/87/87
f 69/75/75 78/88/88 67/73/73
f 33/35/35 66/72/72 31/33/33
f 33/35/35 68/74/74 66/72/72
f 35/37/37 68/74/74 33/35/35
f 35/37/37 70/76/76 68/74/74
f 37/39/39 70/76/76 35/37/37
f 11/89/89 79/90/90 13/91/91
f 11/89/89 80/92/92 79/90/90
f 40/44/44 80/92/92 11/89/89
f 40/44/44 42/46/46 80/92/92
f 41/45/45 42/46/46 40/44/44
f 50/54/54 62/66/66 52/56/56
f 50/54/54 60/64/64 62/66/66
f 81/93/93 60/64/64 50/54/54
f 81/93/93 30/32/32 60/64/64
f 32/34/34 30/32/32 81/93/93
f 79/94/94 14/95/94 13/96/94
f 79/94/94 82/97/94 14/95/94
f 83/98/94 82/97/94 79/94/94
f 83/98/94 84/99/94 82/97/94
f 85/100/95 12/12/12 14/14/14
f 85/100/95 53/57/57 12/12/12
f 25/27/27 53/57/57 85/100/95
f 25/27/27 23/25/25 53/57/57
f 57/61/61 3/101/96 2/2/2
f 57/61/61 86/102/97 3/101/96
f 19/21/21 86/102/97 57/61/61
f 19/21/21 17/19/19 86/102/97
f 44/103/94 71/104/94 38/105/94
f 44/103/94 87/106/94 71/104/94
f 47/107/94 87/106/94 44/103/94
f 47/107/94 49/108/94 87/106/94
f 76/109/98 28/30/30 27/110/29
f 76/109/98 74/81/81 28/30/30
f 78/111/99 74/81/81 76/109/98
f 78/111/99 69/83/83 74/81/81
f 34/36/36 46/50/50 36/38/38
f 34/36/36 81/93/93 46/50/50
f 32/34/34 81/93/93 34/36/36
f 9/112/100 40/44/44 11/89/89
f 9/112/100 7/42/42 40/44/44
f 51/113/94 87/106/94 49/108/94
f 51/113/94 52/114/94 87/106/94
f 73/115/94 87/106/94 52/114/94
f 73/115/94 72/116/94 87/106/94
f 83/117/101 80/92/92 42/46/46
f 83/117/101 79/90/90 80/92/92
f 14/95/94 25/118/94 85/119/94
f 14/95/94 82/97/94 25/118/94
f 24/120/94 82/97/94 88/121/94
f 24/120/94 25/118/94 82/97/94
f 43/122/94 82/97/94 84/99/94
f 43/122/94 88/121/94 82/97/94
f 84/123/102 42/46/46 43/47/47
f 84/123/102 83/117/101 42/46/46
f 3/124/103 17/19/19 15/15/15
f 3/124/103 86/102/97 17/19/19
f 88/125/104 22/24/24 24/26/26
f 88/125/104 43/47/47 22/24/24
f 19/21/21 55/59/59 21/23/23
f 19/21/21 57/61/61 55/59/59
f 48/52/52 81/93/93 50/54/54
f 48/52/52 46/50/50 81/93/93
f 78/88/88 76/85/85 77/87/87
f 72/116/94 71/104/94 87/106/94
f 45/126/94 47/107/94 44/103/94
f 39/43/43 16/18/18 18/20/20
f 61/65/65 59/63/63 63/67/67
f 69/83/83 75/82/82 74/81/81
f 63/67/67 70/84/84 37/69/69
f 91/127/105 93/128/106 90/129/107
l 89 92
