# Blender v2.79 (sub 0) OBJ File: ''
# www.blender.org
mtllib sqPizq.mtl
o polygon1_mat1_polygon1_mat1
v 0.460055 1.071159 -0.224871
v 0.896060 1.055647 0.141340
v 0.995935 1.244677 -0.130845
v 0.566254 0.982887 0.126353
v 0.386455 0.861974 -0.147252
v 0.610519 0.807099 0.190697
v 0.408930 0.677039 -0.190620
v 0.631405 0.571681 0.147206
v 0.431004 0.415942 -0.267771
v 0.648376 0.332683 0.047857
v 0.448248 0.221777 -0.292501
v 0.642490 0.132785 -0.005512
v 0.450363 0.079514 -0.333727
v 0.640693 0.017680 -0.025624
v 0.708964 1.205848 -0.408526
v 0.521509 0.990727 -0.468638
v 0.859083 1.070744 -0.535677
v 0.919078 0.863245 -0.649681
v 1.228507 0.814428 -0.447558
v 1.232988 0.576956 -0.510515
v 1.220518 0.460785 -0.159142
v 1.194141 0.327984 -0.526574
v 1.182552 0.249495 -0.210741
v 1.362883 0.127748 -0.478710
v 1.212842 0.080126 -0.268080
v 0.524054 0.809727 -0.548550
v 0.559220 0.547212 -0.574185
v 0.940586 0.625548 -0.692022
v 0.903944 0.366336 -0.682904
v 1.121396 0.188589 -0.786736
v 0.982852 0.150028 0.042063
v 1.006995 0.335897 0.097346
v 1.235685 0.697900 -0.099932
v 0.979298 0.593563 0.159705
v 1.158166 0.973505 -0.032150
v 0.928596 0.856434 0.206522
v 0.626299 0.147439 -0.637576
v 0.592583 0.329111 -0.560747
v 0.880898 0.101826 -0.400034
v 0.731550 0.196151 -0.857356
v 0.883494 0.164898 -0.696623
v 0.984661 0.015786 0.014202
v 1.154408 1.063101 -0.332098
v 1.180538 0.135888 -0.533407
v 0.475075 0.722632 -0.249272
v 1.026811 1.104928 -0.044568
v 0.917594 0.912842 0.135791
vt 0.395660 0.941315
vt 0.309875 0.948395
vt 0.395660 0.979584
vt 0.362732 0.939270
vt 0.395660 0.916290
vt 0.352570 0.917938
vt 0.395660 0.891266
vt 0.350616 0.886810
vt 0.395660 0.855316
vt 0.352203 0.851776
vt 0.395660 0.828308
vt 0.352020 0.824158
vt 0.395660 0.806427
vt 0.351654 0.806427
vt 0.108185 0.953217
vt 0.035919 0.941315
vt 0.035919 0.979584
vt 0.076019 0.922791
vt 0.141724 0.931610
vt 0.145264 0.901154
vt 0.199890 0.899597
vt 0.198730 0.867310
vt 0.250305 0.859192
vt 0.196777 0.832672
vt 0.251038 0.830719
vt 0.224823 0.794647
vt 0.246246 0.806427
vt 0.035919 0.916290
vt 0.035919 0.891266
vt 0.083344 0.897949
vt 0.084473 0.862793
vt 0.144562 0.868805
vt 0.140350 0.834045
vt 0.166626 0.794647
vt 0.301910 0.825775
vt 0.300476 0.852692
vt 0.252258 0.894562
vt 0.298004 0.888672
vt 0.258179 0.932159
vt 0.303314 0.924042
vt 0.035919 0.828308
vt 0.087982 0.806427
vt 0.035919 0.806427
vt 0.083313 0.833984
vt 0.852173 0.605896
vt 0.786560 0.532623
vt 0.834503 0.551178
vt 0.788055 0.602325
vt 0.865051 0.640869
vt 0.820129 0.637390
vt 0.303192 0.806427
vt 0.254608 0.979584
vt 0.203003 0.935547
vt 0.035919 0.855316
vt 0.107391 0.794647
vt 0.724335 0.620880
vt 0.736328 0.562439
vt 0.714569 0.658844
vt 0.758881 0.644684
vt 0.790558 0.669800
vt 0.129761 0.806427
vt 0.162781 0.979584
vt 0.205658 0.806427
vt 0.669891 0.595917
vt 0.667114 0.547180
vt 0.535400 0.524567
vn -0.4959 0.7746 0.3925
vn 0.0762 0.6330 0.7704
vn -0.3456 0.8254 0.4464
vn -0.5919 0.4928 0.6378
vn -0.8665 0.0681 0.4946
vn -0.5241 0.0060 0.8516
vn -0.8405 -0.2019 0.5028
vn -0.4878 -0.2653 0.8316
vn -0.8355 -0.2082 0.5085
vn -0.5131 -0.2612 0.8176
vn -0.8372 -0.1407 0.5285
vn -0.4771 -0.1972 0.8564
vn -0.8483 -0.1195 0.5159
vn -0.5397 -0.1367 0.8307
vn -0.2728 0.8574 -0.4365
vn -0.7163 0.6753 -0.1759
vn -0.3351 0.9166 0.2181
vn -0.6864 0.3582 -0.6329
vn 0.2125 0.6423 -0.7364
vn 0.0798 0.3068 -0.9484
vn 0.9002 0.2766 -0.3364
vn 0.7737 0.0292 -0.6329
vn 0.9560 -0.1657 0.2420
vn 0.8768 0.1885 -0.4425
vn 0.9094 0.0222 0.4154
vn 0.9418 0.3210 -0.1000
vn 0.8001 -0.0751 0.5951
vn -0.9309 0.0979 -0.3519
vn -0.9388 0.0064 -0.3445
vn -0.6977 0.1314 -0.7042
vn -0.6669 -0.0215 -0.7449
vn 0.1216 0.0665 -0.9904
vn 0.1215 0.2214 -0.9676
vn 0.4679 0.3820 -0.7970
vn 0.5583 -0.2255 0.7984
vn 0.3724 -0.2512 0.8934
vn 0.9036 -0.0118 0.4281
vn 0.3675 -0.1588 0.9164
vn 0.8276 0.3094 0.4683
vn 0.2594 0.0628 0.9637
vn -0.8845 -0.0086 -0.4665
vn -0.8876 0.0570 -0.4570
vn -0.8705 0.1250 -0.4761
vn -0.7485 0.1342 -0.6494
vn 0.0187 -0.9780 -0.2078
vn 0.2051 -0.1835 0.9614
vn 0.7212 0.5731 0.3891
vn 0.7514 0.5999 -0.2747
vn -0.9226 0.0006 -0.3858
vn -0.2533 0.4283 -0.8674
vn 0.2187 0.0442 -0.9748
vn 0.3417 0.8161 -0.4661
vn 0.7241 -0.0267 -0.6891
vn 0.6175 -0.6952 -0.3679
vn 0.5997 -0.7116 -0.3661
vn 0.6462 -0.6778 -0.3508
usemtl mat1.002
s 1
f 1/1/1 2/2/2 3/3/3
f 1/1/1 4/4/4 2/2/2
f 4/4/4 1/1/1 5/5/5
f 5/5/5 6/6/6 4/4/4
f 7/7/7 6/6/6 5/5/5
f 7/7/7 8/8/8 6/6/6
f 9/9/9 8/8/8 7/7/7
f 9/9/9 10/10/10 8/8/8
f 11/11/11 10/10/10 9/9/9
f 11/11/11 12/12/12 10/10/10
f 13/13/13 12/12/12 11/11/11
f 13/13/13 14/14/14 12/12/12
f 15/15/15 1/16/16 3/17/17
f 15/15/15 16/18/18 1/16/16
f 17/19/19 16/18/18 15/15/15
f 17/19/19 18/20/20 16/18/18
f 19/21/21 18/20/20 17/19/19
f 19/21/21 20/22/22 18/20/20
f 21/23/23 20/22/22 19/21/21
f 21/23/23 22/24/24 20/22/22
f 23/25/25 22/24/24 21/23/23
f 23/25/25 24/26/26 22/24/24
f 25/27/27 24/26/26 23/25/25
f 16/18/18 5/28/28 1/16/16
f 16/18/18 7/29/29 5/28/28
f 26/30/30 7/29/29 16/18/18
f 26/30/30 27/31/31 7/29/29
f 18/20/20 27/31/31 26/30/30
f 18/20/20 28/32/32 27/31/31
f 20/22/22 28/32/32 18/20/20
f 20/22/22 29/33/33 28/32/32
f 22/24/24 29/33/33 20/22/22
f 22/24/24 30/34/34 29/33/33
f 21/23/23 31/35/35 23/25/25
f 21/23/23 32/36/36 31/35/35
f 33/37/37 32/36/36 21/23/23
f 33/37/37 34/38/38 32/36/36
f 35/39/39 34/38/38 33/37/37
f 35/39/39 36/40/40 34/38/38
f 2/2/2 36/40/40 35/39/39
f 2/2/2 6/6/6 36/40/40
f 4/4/4 6/6/6 2/2/2
f 32/36/36 12/12/12 31/35/35
f 32/36/36 10/10/10 12/12/12
f 34/38/38 10/10/10 32/36/36
f 34/38/38 8/8/8 10/10/10
f 36/40/40 8/8/8 34/38/38
f 36/40/40 6/6/6 8/8/8
f 11/41/41 37/42/42 13/43/43
f 11/41/41 38/44/44 37/42/42
f 27/31/31 38/44/44 11/41/41
f 27/31/31 29/33/33 38/44/44
f 28/32/32 29/33/33 27/31/31
f 37/45/45 14/46/45 13/47/45
f 37/45/45 39/48/45 14/46/45
f 40/49/45 39/48/45 37/45/45
f 40/49/45 41/50/45 39/48/45
f 42/51/46 12/12/12 14/14/14
f 42/51/46 31/35/35 12/12/12
f 25/27/27 31/35/35 42/51/46
f 25/27/27 23/25/25 31/35/35
f 35/39/39 3/52/47 2/2/2
f 35/39/39 43/53/48 3/52/47
f 19/21/21 43/53/48 35/39/39
f 19/21/21 17/19/19 43/53/48
f 9/54/49 27/31/31 11/41/41
f 9/54/49 7/29/29 27/31/31
f 40/55/50 38/44/44 29/33/33
f 40/55/50 37/42/42 38/44/44
f 14/46/45 25/56/45 42/57/45
f 14/46/45 39/48/45 25/56/45
f 24/58/45 39/48/45 44/59/45
f 24/58/45 25/56/45 39/48/45
f 30/60/45 39/48/45 41/50/45
f 30/60/45 44/59/45 39/48/45
f 41/61/51 29/33/33 30/34/34
f 41/61/51 40/55/50 29/33/33
f 3/62/52 17/19/19 15/15/15
f 3/62/52 43/53/48 17/19/19
f 44/63/53 22/24/24 24/26/26
f 44/63/53 30/34/34 22/24/24
f 19/21/21 33/37/37 21/23/23
f 19/21/21 35/39/39 33/37/37
f 26/30/30 16/18/18 18/20/20
f 46/64/54 47/65/55 45/66/56
