# Created by MKDS Course Modifier
mtllib Turban Girl Picture.mtl
g polygon0
usemtl phong5
v -1 3.5 -0.5
v -1 6 -0.5
v 1 3.5 -0.5
v 1 6 -0.5
vn 0 0 -1
vn 0 0 -1
vn 0 0 -1
vn 0 0 -1
vt 0.01953125 -0.734375
vt 0.01953125 -0.5195313
vt 0.15625 -0.734375
vt 0.15625 -0.5195313
f 1/1/1 2/2/2 3/3/3
f 2/2/2 4/4/4 3/3/3
v -1 3.5 -0.5
v -1 3.5 0
v -1 6 -0.5
v -1 6 0
vn -1 0 0
vn -1 0 0
vn -1 0 0
vn -1 0 0
vt 0.01953125 -0.984375
vt 0.15625 -0.984375
vt 0.01953125 -0.7675781
vt 0.15625 -0.7675781
f 5/5/5 6/6/6 7/7/7
f 6/6/6 8/8/8 7/7/7
v 1 3.5 -0.5
v 1 6 -0.5
v 1 3.5 0
v 1 6 0
vn 0.9980469 0 0
vn 0.9980469 0 0
vn 0.9980469 0 0
vn 0.9980469 0 0
vt 0.01953125 -0.7675781
vt 0.01953125 -0.984375
vt 0.15625 -0.7675781
vt 0.15625 -0.984375
f 9/9/9 10/10/10 11/11/11
f 10/10/10 12/12/12 11/11/11
v -1 6 -0.5
v -1 6 0
v 1 6 -0.5
v 1 6 0
vn 0 0.9980469 0
vn 0 0.9980469 0
vn 0 0.9980469 0
vn 0 0.9980469 0
vt 0.01953125 -0.484375
vt 0.15625 -0.484375
vt 0.01953125 -0.265625
vt 0.15625 -0.265625
f 13/13/13 14/14/14 15/15/15
f 14/14/14 16/16/16 15/15/15
v -0.8500977 5.875 0
v -0.8500977 3.625 0
v 0.8500977 5.875 0
v 0.8500977 3.625 0
vn 0 0 0.9980469
vn 0 0 0.9980469
vn 0 0 0.9980469
vn 0 0 0.9980469
vt 0.2675781 -0.015625
vt 0.2675781 -0.9863281
vt 0.9863281 -0.015625
vt 0.9863281 -0.9863281
f 17/17/17 18/18/18 19/19/19
f 18/18/18 20/20/20 19/19/19
v -1 6 0
v -1 3.5 0
v -0.8500977 5.875 0
v -0.8500977 3.625 0
vn 0 0 0.9980469
vn 0 0 0.9980469
vn 0 0 0.9980469
vn 0 0 0.9980469
vt 0.15625 -0.7675781
vt 0.15625 -0.984375
vt 0.2304688 -0.7792969
vt 0.2304688 -0.9765625
f 21/21/21 22/22/22 23/23/23
f 22/22/22 24/24/24 23/23/23
v -1 3.5 0
v 1 3.5 0
v -0.8500977 3.625 0
v 0.8500977 3.625 0
vn 0 0 0.9980469
vn 0 0 0.9980469
vn 0 0 0.9980469
vn 0 0 0.9980469
vt 0.15625 -0.015625
vt 0.15625 -0.234375
vt 0.2304688 -0.02929688
vt 0.2304688 -0.2226563
f 25/25/25 26/26/26 27/27/27
f 26/26/26 28/28/28 27/27/27
v 1 3.5 0
v 1 6 0
v 0.8500977 3.625 0
v 0.8500977 5.875 0
vn 0 0 0.9980469
vn 0 0 0.9980469
vn 0 0 0.9980469
vn 0 0 0.9980469
vt 0.15625 -0.7675781
vt 0.15625 -0.984375
vt 0.2304688 -0.7792969
vt 0.2304688 -0.9765625
f 29/29/29 30/30/30 31/31/31
f 30/30/30 32/32/32 31/31/31
v 1 6 0
v -1 6 0
v 0.8500977 5.875 0
v -0.8500977 5.875 0
vn 0 0 0.9980469
vn 0 0 0.9980469
vn 0 0 0.9980469
vn 0 0 0.9980469
vt 0.15625 -0.265625
vt 0.15625 -0.484375
vt 0.2304688 -0.2792969
vt 0.2304688 -0.4726563
f 33/33/33 34/34/34 35/35/35
f 34/34/34 36/36/36 35/35/35
